<?xml version="1.0" encoding="UTF-8" standalone="no"?>
<svg
   xmlns:dc="http://purl.org/dc/elements/1.1/"
   xmlns:cc="http://creativecommons.org/ns#"
   xmlns:rdf="http://www.w3.org/1999/02/22-rdf-syntax-ns#"
   xmlns:svg="http://www.w3.org/2000/svg"
   xmlns="http://www.w3.org/2000/svg"
   id="svg10188"
   version="1.1"
   viewBox="0 0 40 17.999999"
   height="1.8cm"
   width="4cm">
  <defs
     id="defs10182" />
  <metadata
     id="metadata10185">
    <rdf:RDF>
      <cc:Work
         rdf:about="">
        <dc:format>image/svg+xml</dc:format>
        <dc:type
           rdf:resource="http://purl.org/dc/dcmitype/StillImage" />
        <dc:title></dc:title>
      </cc:Work>
    </rdf:RDF>
  </metadata>
  <g
     transform="translate(0,-279.00002)"
     id="layer1">
    <g
       id="text10160"
       style="font-variant:normal;font-weight:500;font-stretch:normal;font-size:3.77887702px;font-family:'Gotham Greek Medium';-inkscape-font-specification:GothamGreek-Medium;writing-mode:lr-tb;fill:#0b2338;fill-opacity:1;fill-rule:nonzero;stroke:none;stroke-width:0.31424391"
       aria-label="επίδομα
στέγασης">
      <path
         id="path10796"
         style="stroke-width:0.31424391"
         d="m 20.976303,287.43738 q -0.206657,-0.0443 -0.317366,-0.16422 -0.11071,-0.11809 -0.11071,-0.28969 0,-0.26017 0.210348,-0.40594 0.208502,-0.14392 0.570153,-0.14392 0.140232,0 0.29707,0.0221 0.156838,0.0221 0.337663,0.0664 v 0.30814 q -0.17898,-0.0535 -0.326592,-0.0775 -0.149458,-0.024 -0.280464,-0.024 -0.219573,0 -0.346889,0.0849 -0.129161,0.0849 -0.129161,0.20297 0,0.12916 0.125471,0.21219 0.123625,0.0812 0.337663,0.0812 h 0.285999 v 0.28046 h -0.273083 q -0.252786,0 -0.385637,0.0941 -0.143922,0.10333 -0.143922,0.2657 0,0.16606 0.154993,0.26939 0.156838,0.10333 0.435456,0.10333 0.1716,0 0.328438,-0.0332 0.156838,-0.0351 0.287844,-0.10333 v 0.31552 q -0.166064,0.0517 -0.321057,0.0775 -0.156838,0.0258 -0.304451,0.0258 -0.439146,0 -0.677171,-0.16791 -0.238025,-0.16791 -0.238025,-0.48712 0,-0.19928 0.127315,-0.33397 0.127316,-0.1347 0.356115,-0.17898 z" />
      <path
         id="path10798"
         style="stroke-width:0.31424391"
         d="m 22.828934,286.48528 h 1.979851 v 0.3395 h -0.260167 v 1.26947 q 0,0.13285 0.04428,0.1919 0.04613,0.0572 0.147612,0.0572 0.02768,0 0.06827,-0.004 0.04059,-0.006 0.05351,-0.007 v 0.2454 q -0.06458,0.024 -0.132851,0.0351 -0.06827,0.0111 -0.136541,0.0111 -0.221419,0 -0.306296,-0.11993 -0.08488,-0.12178 -0.08488,-0.44653 v -1.23257 H 23.43968 v 1.72707 h -0.346889 v -1.72707 h -0.263857 z" />
      <path
         id="path10800"
         style="stroke-width:0.31424391"
         d="m 25.954854,286.48528 v 1.33773 q 0,0.26755 0.06273,0.35243 0.06643,0.0886 0.265702,0.0886 h 0.164219 v 0.28784 h -0.204812 q -0.332128,0 -0.483431,-0.17714 -0.151302,-0.18082 -0.151302,-0.57199 l -0.0018,-1.31744 z m 0.202967,-0.95579 h 0.367186 l -0.601521,0.69377 h -0.282309 z" />
      <path
         id="path10802"
         style="stroke-width:0.31424391"
         d="m 28.516529,286.15868 q -0.188206,-0.12916 -0.629198,-0.12916 -0.466824,0 -0.466824,0.21589 0,0.16975 0.487121,0.25832 0.383792,0.0683 0.599675,0.27493 0.262012,0.24909 0.262012,0.7602 0,0.48897 -0.252786,0.77681 -0.252786,0.28969 -0.695623,0.28969 -0.440992,0 -0.695623,-0.28969 -0.252787,-0.28784 -0.252787,-0.79526 0,-0.37641 0.252787,-0.68086 0.09779,-0.11809 0.236179,-0.18452 -0.287844,-0.14577 -0.287844,-0.40593 0,-0.50189 0.813713,-0.50189 0.40778,0 0.629198,0.12916 z m -0.900435,0.58861 q -0.125471,0.0535 -0.226954,0.1882 -0.158684,0.20851 -0.158684,0.58492 0,0.37456 0.156839,0.58491 0.158683,0.21219 0.433611,0.21219 0.271238,0 0.429921,-0.21403 0.158683,-0.21404 0.158683,-0.56462 0,-0.36719 -0.167909,-0.54432 -0.17898,-0.19005 -0.411469,-0.21035 -0.11809,-0.0111 -0.214038,-0.0369 z" />
      <path
         id="path10804"
         style="stroke-width:0.31424391"
         d="m 30.579481,286.7233 q -0.273083,0 -0.431766,0.21404 -0.158683,0.21219 -0.158683,0.58307 0,0.37087 0.156838,0.58491 0.158683,0.21219 0.433611,0.21219 0.271238,0 0.429921,-0.21403 0.158684,-0.21404 0.158684,-0.58307 0,-0.36719 -0.158684,-0.58123 -0.158683,-0.21588 -0.429921,-0.21588 z m 0,-0.28784 q 0.442837,0 0.695624,0.28784 0.252786,0.28785 0.252786,0.79711 0,0.50742 -0.252786,0.7971 -0.252787,0.28785 -0.695624,0.28785 -0.444682,0 -0.697468,-0.28785 -0.250941,-0.28968 -0.250941,-0.7971 0,-0.50926 0.250941,-0.79711 0.252786,-0.28784 0.697468,-0.28784 z" />
      <path
         id="path10806"
         style="stroke-width:0.31424391"
         d="m 32.509774,289.33789 v -2.85261 h 0.339508 v 1.28422 q 0,0.26755 0.127316,0.40409 0.127316,0.13654 0.376412,0.13654 0.273082,0 0.409624,-0.15499 0.138387,-0.15499 0.138387,-0.46498 v -1.20488 h 0.339508 v 1.59052 q 0,0.11071 0.03137,0.16422 0.03321,0.0517 0.101483,0.0517 0.01661,0 0.04613,-0.009 0.02952,-0.0111 0.08119,-0.0332 v 0.27309 q -0.07565,0.0424 -0.143922,0.0627 -0.06643,0.0203 -0.131006,0.0203 -0.127316,0 -0.202967,-0.072 -0.07565,-0.072 -0.103329,-0.21958 -0.09226,0.14577 -0.226954,0.21958 -0.132851,0.072 -0.313676,0.072 -0.188206,0 -0.321057,-0.072 -0.131006,-0.072 -0.208503,-0.21589 v 1.02038 z" />
      <path
         id="path10808"
         style="stroke-width:0.31424391"
         d="m 36.387383,287.59052 -0.08119,-0.42623 q -0.08303,-0.4373 -0.41147,-0.4373 -0.24725,0 -0.359805,0.20297 -0.142077,0.25463 -0.142077,0.59045 0,0.40593 0.138387,0.59967 0.140232,0.19743 0.363495,0.19743 0.247251,0 0.380102,-0.39301 z m 0.190051,-0.56461 0.18267,-0.54063 h 0.302605 l -0.378256,1.12 0.07381,0.40409 q 0.01661,0.0904 0.08119,0.16607 0.07565,0.0886 0.134696,0.0886 h 0.162373 v 0.28784 h -0.202967 q -0.173444,0 -0.328437,-0.15499 -0.07565,-0.0775 -0.107019,-0.23987 -0.08488,0.20481 -0.258322,0.36534 -0.08119,0.0756 -0.345044,0.0756 -0.433611,0 -0.643959,-0.28047 -0.215883,-0.28968 -0.215883,-0.7971 0,-0.54248 0.234335,-0.79711 0.260167,-0.28415 0.625507,-0.28415 0.573843,0 0.682708,0.58676 z" />
      <path
         id="path10810"
         style="stroke-width:0.31424391"
         d="m 21.404379,291.47826 q -0.280463,0 -0.431766,0.20297 -0.158683,0.21219 -0.158683,0.56277 0,0.37088 0.156838,0.58492 0.158683,0.21219 0.433611,0.21219 0.271238,0 0.429921,-0.21404 0.158683,-0.21403 0.158683,-0.58307 0,-0.33766 -0.158683,-0.56277 -0.145767,-0.20297 -0.429921,-0.20297 z m 0,-0.26939 h 1.12739 v 0.33951 h -0.380102 q 0.201122,0.28784 0.201122,0.69562 0,0.50742 -0.252787,0.79527 -0.252786,0.28969 -0.695623,0.28969 -0.444682,0 -0.695623,-0.28969 -0.252786,-0.28785 -0.252786,-0.79527 0,-0.5111 0.252786,-0.7971 0.208502,-0.23803 0.695623,-0.23803 z" />
      <path
         id="path10812"
         style="stroke-width:0.31424391"
         d="m 24.007893,292.89903 q 0.06643,0.0886 0.265702,0.0886 h 0.164219 v 0.28785 h -0.204813 q -0.332127,0 -0.48343,-0.17714 -0.151303,-0.18082 -0.151303,-0.572 v -0.97793 h -0.774965 v -0.33951 h 1.906045 v 0.33951 h -0.784191 v 0.99823 q 0,0.26755 0.06274,0.35242 z" />
      <path
         id="path10814"
         style="stroke-width:0.31424391"
         d="m 26.260827,290.25308 h 0.367186 l -0.601521,0.69378 h -0.282308 z m -0.619972,1.90789 q -0.206657,-0.0443 -0.317367,-0.16422 -0.110709,-0.11809 -0.110709,-0.28969 0,-0.26016 0.210348,-0.40593 0.208502,-0.14392 0.570152,-0.14392 0.140232,0 0.29707,0.0221 0.156839,0.0221 0.337664,0.0664 v 0.30814 q -0.17898,-0.0535 -0.326593,-0.0775 -0.149457,-0.024 -0.280463,-0.024 -0.219574,0 -0.346889,0.0849 -0.129161,0.0849 -0.129161,0.20297 0,0.12916 0.12547,0.21219 0.123626,0.0812 0.337664,0.0812 h 0.285999 v 0.28046 h -0.273083 q -0.252786,0 -0.385638,0.0941 -0.143922,0.10333 -0.143922,0.26571 0,0.16606 0.154993,0.26939 0.156839,0.10333 0.435457,0.10333 0.171599,0 0.328437,-0.0332 0.156839,-0.0351 0.287845,-0.10333 v 0.31553 q -0.166064,0.0517 -0.321057,0.0775 -0.156838,0.0258 -0.304451,0.0258 -0.439147,0 -0.677172,-0.16791 -0.238025,-0.16791 -0.238025,-0.48712 0,-0.19928 0.127316,-0.33398 0.127316,-0.13469 0.356115,-0.17898 z" />
      <path
         id="path10816"
         style="stroke-width:0.31424391"
         d="m 27.622551,291.53362 0.452063,1.27685 0.645804,-1.6016 h 0.359805 l -0.835855,2.06658 v 0.78603 H 27.90486 v -0.78603 l -0.542476,-1.54255 q -0.08119,-0.23249 -0.256476,-0.23249 h -0.09041 v -0.29154 h 0.129161 q 0.363495,0 0.477895,0.32475 z" />
      <path
         id="path10818"
         style="stroke-width:0.31424391"
         d="m 30.753779,292.31412 -0.08119,-0.42623 q -0.08303,-0.4373 -0.41147,-0.4373 -0.24725,0 -0.359805,0.20296 -0.142077,0.25464 -0.142077,0.59045 0,0.40594 0.138387,0.59968 0.140232,0.19743 0.363495,0.19743 0.247251,0 0.380102,-0.39302 z m 0.190051,-0.56462 0.18267,-0.54063 h 0.302605 l -0.378256,1.12001 0.07381,0.40409 q 0.01661,0.0904 0.08119,0.16606 0.07565,0.0886 0.134696,0.0886 h 0.162373 v 0.28785 h -0.202967 q -0.173444,0 -0.328437,-0.155 -0.07565,-0.0775 -0.107019,-0.23987 -0.08488,0.20481 -0.258322,0.36534 -0.08119,0.0756 -0.345044,0.0756 -0.433611,0 -0.643959,-0.28046 -0.215883,-0.28969 -0.215883,-0.79711 0,-0.54247 0.234335,-0.7971 0.260167,-0.28416 0.625507,-0.28416 0.573843,0 0.682708,0.58676 z" />
      <path
         id="path10820"
         style="stroke-width:0.31424391"
         d="m 32.844339,291.47826 q -0.280464,0 -0.431767,0.20297 -0.158683,0.21219 -0.158683,0.56277 0,0.37088 0.156838,0.58492 0.158684,0.21219 0.433612,0.21219 0.271237,0 0.429921,-0.21404 0.158683,-0.21403 0.158683,-0.58307 0,-0.33766 -0.158683,-0.56277 -0.145768,-0.20297 -0.429921,-0.20297 z m 0,-0.26939 h 1.127389 v 0.33951 h -0.380102 q 0.201122,0.28784 0.201122,0.69562 0,0.50742 -0.252786,0.79527 -0.252786,0.28969 -0.695623,0.28969 -0.444683,0 -0.695624,-0.28969 -0.252786,-0.28785 -0.252786,-0.79527 0,-0.5111 0.252786,-0.7971 0.208503,-0.23803 0.695624,-0.23803 z" />
      <path
         id="path10822"
         style="stroke-width:0.31424391"
         d="m 36.152702,292.02812 v 2.03336 h -0.339509 v -2.02229 q 0,-0.29338 -0.114399,-0.43914 -0.1144,-0.14577 -0.343199,-0.14577 -0.274928,0 -0.433612,0.17529 -0.158683,0.17529 -0.158683,0.47789 v 1.16799 h -0.341353 v -2.06658 H 34.7633 v 0.32106 q 0.12178,-0.18636 0.285999,-0.27862 0.166064,-0.0923 0.381947,-0.0923 0.356115,0 0.538785,0.21958 0.182671,0.22142 0.182671,0.64949 z" />
      <path
         id="path10824"
         style="stroke-width:0.31424391"
         d="m 37.739534,293.32896 q -0.496346,0 -0.771274,-0.29338 -0.274929,-0.29338 -0.274929,-0.79158 0,-0.50557 0.276774,-0.79526 0.278618,-0.28969 0.762049,-0.28969 0.156838,0 0.306295,0.0332 0.149458,0.0314 0.28969,0.0959 v 0.31737 q -0.143922,-0.0793 -0.28969,-0.11809 -0.143922,-0.0406 -0.291534,-0.0406 -0.330283,0 -0.512953,0.21034 -0.182671,0.20851 -0.182671,0.58676 0,0.37826 0.182671,0.58861 0.18267,0.2085 0.505572,0.2085 0.241715,0 0.389328,0.14023 0.154993,0.14577 0.154993,0.36719 0,0.21219 -0.136542,0.3598 -0.147612,0.16053 -0.448372,0.16053 0,-0.13838 0,-0.27862 0.127315,0.009 0.204812,-0.072 0.05904,-0.0646 0.05904,-0.13285 0,-0.0978 -0.05904,-0.17898 -0.0572,-0.0775 -0.164219,-0.0775 z" />
    </g>
    <g
       id="g10164"
       transform="matrix(0.3142439,0,0,-0.3142439,17.828262,286.10839)">
      <path
         d="M 0,0 V -25.984"
         style="fill:none;stroke:#0b2338;stroke-width:1.00199997;stroke-linecap:butt;stroke-linejoin:miter;stroke-miterlimit:10;stroke-dasharray:none;stroke-opacity:1"
         id="path10162" />
    </g>
    <g
       id="g10178"
       transform="matrix(0.18500065,0,0,-0.18500065,-77.121862,314.52909)">
      <g
         transform="translate(499.16759,186.45093)"
         id="g10168">
        <path
           id="path10166"
           style="fill:#ed1345;fill-opacity:1;fill-rule:nonzero;stroke:none"
           d="m 0,0 c 0,-1.328 -0.156,-2.58 -0.549,-3.871 -0.312,-0.977 -1.443,-1.164 -2.381,-0.93 -2.927,0.731 -5.758,1.057 -7.767,-1.623 -0.276,-0.392 -0.332,0.139 -0.217,-0.332 0.361,-1.441 3.391,-0.871 4.629,-0.849 2.428,0.039 2.064,-1.036 2.377,-1.661 1.025,-2.047 -1.465,-2.521 -2.934,-2.441 -2.201,0.117 -1.713,-0.445 -4.01,-0.377 -0.714,0.021 -1.279,-0.254 -1.279,-0.852 0,-1.15 3.152,-0.492 4.195,-0.546 1.124,-0.059 3.983,1.47 4.159,-1.465 0.201,-3.36 -2.723,-2.973 -4.135,-2.85 -1.354,0.119 -3.494,0.307 -3.707,-0.469 -0.797,-2.884 3.961,-3.011 5.865,-3.132 1.719,-0.108 2.951,0.4 4.52,1.058 0.17,0.072 0.652,-3.121 0.58,-3.416 -0.198,-0.814 -0.787,-1.4 -1.481,-1.832 -4.383,-2.713 -11.715,-0.504 -14.597,3.223 -0.948,1.23 -1.625,2.594 -1.571,4.158 -0.972,0.041 -3.601,0.094 -2.845,2.727 0.337,1.179 1.242,1.439 2.298,1.517 -0.232,0.666 -0.267,1.492 -0.226,2.197 -0.666,0.116 -1.643,-0.119 -1.996,0.703 -0.313,0.86 0.867,3.417 1.689,3.649 0.391,0.08 0.821,-0.076 1.172,0.197 1.029,0.797 1.184,1.362 1.875,2.479 0.731,1.175 1.52,2.297 2.606,3.176 2.187,1.775 5.376,2.953 8.193,3.042 1.488,0.047 3.264,-0.214 4.639,-0.816 0.271,-0.117 0.505,-0.35 0.781,-0.506" />
      </g>
      <g
         transform="translate(433.41949,144.37873)"
         id="g10172">
        <path
           id="path10170"
           style="fill:#0b2338;fill-opacity:1;fill-rule:nonzero;stroke:none"
           d="m 0,0 c -1.176,0.223 -5.357,-0.934 -7.248,0.58 2.268,3.402 8.332,5.951 12.291,8.031 4.65,2.446 9.518,5.434 14.055,7.701 2.646,1.891 8.127,5.995 11.908,5.618 2.646,-0.379 9.076,-4.916 12.099,-6.049 L 55.963,7.561 C 58.988,5.293 64.246,2.75 67.27,0.104 c -8.698,-3.405 -5.237,-1.43 -5.237,-28.844 0,-4.537 0.358,-10.207 -3.426,-13.235 -3.402,-2.646 -10.806,-1.466 -14.673,-1.009 -4.539,0.533 -3.475,18.324 -3.475,23.996 0,0 1.268,2.834 -5.295,3.392 -3.475,0.295 -13.412,1.344 -15.682,-1.304 -1.888,-2.27 -1.711,-2.465 -1.711,-5.868 0,-17.781 -0.757,-18.449 -7.941,-19.207 -6.428,-0.377 -9.83,-0.377 -10.965,6.43 -0.758,6.049 0,12.856 0.756,18.529 C 0,-12.48 0.576,-5.391 0,0" />
      </g>
      <g
         transform="translate(456.72419,103.85913)"
         id="g10176">
        <path
           id="path10174"
           style="fill:#92adba;fill-opacity:1;fill-rule:nonzero;stroke:none"
           d="m 0,0 c -0.031,1.006 -0.283,1.975 -0.314,2.982 -0.063,1.198 -0.063,11.176 0.062,12.379 0.063,0.58 0.094,1.586 0.408,2.09 0.471,0.735 1.635,0.774 2.293,0.852 1.227,0.154 2.451,0.154 3.678,0.193 1.1,0.037 2.232,0.233 3.301,0.115 0.941,-0.115 1.791,-0.502 2.326,-1.47 0.627,-1.045 0.437,-11.024 0.502,-12.262 0.094,-1.162 0.187,-2.285 0,-3.406 C 12.1,0.35 11.721,-0.037 10.936,-0.504 8.641,-1.742 6.002,-1.434 3.582,-1.238 2.514,-1.123 0.408,-1.162 -0.031,0.35" />
      </g>
    </g>
  </g>
</svg>
