<?xml version="1.0" encoding="UTF-8" standalone="no"?>
<svg
   xmlns:dc="http://purl.org/dc/elements/1.1/"
   xmlns:cc="http://creativecommons.org/ns#"
   xmlns:rdf="http://www.w3.org/1999/02/22-rdf-syntax-ns#"
   xmlns:svg="http://www.w3.org/2000/svg"
   xmlns="http://www.w3.org/2000/svg"
   id="svg10188"
   version="1.1"
   viewBox="0 0 50 17.999999"
   height="1.8cm"
   width="5cm">
  <defs
     id="defs10182" />
  <metadata
     id="metadata10185">
    <rdf:RDF>
      <cc:Work
         rdf:about="">
        <dc:format>image/svg+xml</dc:format>
        <dc:type
           rdf:resource="http://purl.org/dc/dcmitype/StillImage" />
        <dc:title></dc:title>
      </cc:Work>
    </rdf:RDF>
  </metadata>
  <g
     transform="translate(0,-279.00002)"
     id="layer1">
    <path
       style="fill:#9c9c9d;stroke-width:0.04517604"
       d="m 7.0853405,294.97098 c -1.5473893,-0.27912 -2.8177468,-0.93423 -3.8891819,-2.00566 -1.0321543,-1.03214 -1.6364153,-2.16782 -1.9753344,-3.71253 -0.1061334,-0.48372 -0.1220774,-0.65695 -0.1219296,-1.32444 1.43e-4,-0.63828 0.017968,-0.84831 0.1054807,-1.24248 0.3607932,-1.62515 1.0058603,-2.81949 2.0883886,-3.86646 1.1885834,-1.1497 2.6040884,-1.78964 4.3497922,-1.96666 0.6136256,-0.0622 1.4483062,-0.01 2.1081745,0.13845 1.2546014,0.27717 2.5459394,0.96603 3.4180574,1.82304 0.234086,0.23006 0.282357,0.30324 0.282357,0.4277 0,0.1625 -0.165477,0.37199 -0.293838,0.37199 -0.124261,0 -0.308592,-0.12048 -0.519336,-0.33967 -0.713896,-0.74202 -1.82608,-1.36485 -2.9047839,-1.62652 -1.8392147,-0.44595 -3.7147592,-0.1202 -5.2660192,0.91497 -0.5342922,0.35656 -1.3603912,1.18644 -1.7188127,1.72671 -0.5296524,0.79841 -0.8614784,1.5737 -1.0509558,2.45576 -0.1318267,0.61356 -0.143617,1.88178 -0.02309,2.48272 0.2744375,1.36841 0.9041471,2.53913 1.9026546,3.53711 1.1863486,1.18575 2.5679211,1.82098 4.2567768,1.95726 1.2663461,0.10202 2.4467792,-0.14147 3.6749782,-0.75803 0.285836,-0.14351 0.545028,-0.25243 0.576005,-0.2422 0.03098,0.0107 0.05627,0.0565 0.05627,0.10212 0,0.14 -0.760027,0.56056 -1.457288,0.80645 -1.2794229,0.45114 -2.3968569,0.55681 -3.5984074,0.34037 z m 11.1119175,0.0198 c -0.275783,-0.14408 -0.384222,-0.36506 -0.383768,-0.78203 6.47e-4,-0.57858 0.314037,-0.9131 0.816387,-0.87151 0.27917,0.024 0.444848,0.12472 0.58122,0.35626 0.129463,0.2197 0.128549,0.81119 -0.002,1.0328 -0.192546,0.3277 -0.658043,0.44925 -1.012247,0.26445 z m 0.560016,-0.14627 c 0.180131,-0.0744 0.277193,-0.21003 0.320039,-0.44454 0.07758,-0.42431 -0.109062,-0.81609 -0.416076,-0.87367 -0.387931,-0.0722 -0.683748,0.2933 -0.63314,0.78359 0.03016,0.2922 0.123116,0.44852 0.316767,0.53277 0.183004,0.0794 0.226031,0.0796 0.41241,0.004 z m 28.301768,0.17321 c -0.124207,-0.14971 0.106988,-0.31513 0.246026,-0.17594 0.05549,0.0559 0.06184,0.0939 0.02643,0.16028 -0.0565,0.10561 -0.191412,0.11349 -0.272518,0.0157 z m 1.774038,0.0177 c -0.118376,-0.11838 0.0051,-0.29246 0.169504,-0.24012 0.146434,0.0452 0.09118,0.29427 -0.06555,0.29427 -0.02733,0 -0.07415,-0.024 -0.103905,-0.0546 z m -32.458983,-0.0199 c -0.0174,-0.0184 -0.03163,-0.38166 -0.03163,-0.8093 0,-0.58991 0.01442,-0.78947 0.05985,-0.82713 0.114202,-0.0945 0.16608,0.0397 0.16608,0.43164 0,0.20628 0.01563,0.37495 0.03476,0.37495 0.0191,0 0.176671,-0.17103 0.350119,-0.38023 0.322007,-0.38835 0.495051,-0.51968 0.576743,-0.438 0.02905,0.0286 -0.02797,0.129 -0.164985,0.28933 -0.115143,0.13475 -0.209345,0.27204 -0.209345,0.30515 0,0.0331 0.121981,0.26914 0.271058,0.52471 0.14908,0.25552 0.271058,0.48554 0.271058,0.51098 0,0.0254 -0.04882,0.0452 -0.108385,0.0452 -0.08896,0 -0.151705,-0.0739 -0.350119,-0.41456 -0.132948,-0.22795 -0.263377,-0.42152 -0.289843,-0.42997 -0.02647,-0.01 -0.117863,0.0711 -0.203096,0.17713 -0.115572,0.14375 -0.160762,0.25018 -0.17776,0.41842 -0.0157,0.15516 -0.04463,0.2297 -0.09275,0.23884 -0.03848,0.01 -0.08419,-0.002 -0.101646,-0.0189 z m 3.297851,0 c -0.01741,-0.0184 -0.03162,-0.38166 -0.03162,-0.8093 0,-0.78806 0.02856,-0.92768 0.172001,-0.839 0.04199,0.025 0.05296,0.23735 0.04369,0.84375 -0.01055,0.68834 -0.02281,0.81128 -0.08239,0.8228 -0.0385,0.01 -0.0842,-5.2e-4 -0.10165,-0.0187 z m 0.585731,-0.003 c -0.01657,-0.0171 -0.03012,-0.37084 -0.03012,-0.78728 0,-0.63699 0.01163,-0.76882 0.07303,-0.8303 0.116119,-0.11607 0.220749,-0.0123 0.639316,0.63578 0.207088,0.32058 0.395816,0.5896 0.419384,0.59788 0.02569,0.01 0.04282,-0.22907 0.04282,-0.59311 0,-0.45914 0.01516,-0.62049 0.0617,-0.65932 0.137358,-0.11398 0.166683,0.0511 0.153901,0.85936 l -0.01233,0.78464 h -0.13277 c -0.12093,0 -0.167668,-0.0547 -0.524143,-0.60768 -0.215259,-0.33416 -0.414707,-0.61548 -0.443224,-0.62496 -0.03734,-0.013 -0.05182,0.16034 -0.05182,0.61897 0,0.58675 -0.007,0.63625 -0.08284,0.63625 -0.0456,0 -0.09639,-0.0139 -0.112942,-0.0298 z m 1.649839,-0.0496 c 0.0083,-0.0428 0.06057,-0.0852 0.116255,-0.0933 0.122918,-0.018 0.122778,-0.0146 0.01084,-0.23398 -0.126626,-0.24835 -0.121711,-0.64164 0.01133,-0.90516 0.144126,-0.28547 0.380544,-0.41388 0.723426,-0.39262 0.277209,0.0176 0.429275,0.099 0.594424,0.32016 0.140606,0.18837 0.15747,0.72008 0.03078,0.96853 -0.117012,0.2294 -0.117114,0.22543 0.0071,0.24307 0.05559,0.01 0.108151,0.052 0.116664,0.0956 0.0138,0.072 -0.01653,0.0796 -0.289581,0.0682 -0.343778,-0.015 -0.399717,-0.0707 -0.232644,-0.22698 0.207761,-0.19555 0.274255,-0.3452 0.274255,-0.61728 0,-0.31013 -0.104553,-0.51489 -0.313541,-0.61402 -0.192718,-0.091 -0.327176,-0.0858 -0.501195,0.0208 -0.192213,0.11728 -0.284546,0.30869 -0.284546,0.58991 0,0.26235 0.04371,0.36763 0.237276,0.5723 0.202965,0.21455 0.149224,0.28529 -0.216586,0.28529 -0.259787,0 -0.296424,-0.0106 -0.283303,-0.0789 z m 1.91638,0.01 c -0.01516,-0.0391 -0.02742,-0.39357 -0.02742,-0.78732 0,-0.59906 0.01195,-0.72788 0.07306,-0.78898 0.117073,-0.11711 0.225494,-0.01 0.641157,0.63569 0.206461,0.32064 0.394499,0.58965 0.417888,0.59796 0.02527,0.01 0.04244,-0.24122 0.04244,-0.61637 0,-0.50527 0.01288,-0.63635 0.06454,-0.65605 0.139842,-0.0542 0.163753,0.0849 0.151215,0.87934 l -0.01231,0.78461 H 25.04348 c -0.118448,0 -0.168135,-0.0576 -0.519527,-0.60041 -0.213705,-0.33009 -0.408887,-0.60452 -0.433729,-0.60986 -0.0279,-0.01 -0.05004,0.22772 -0.05779,0.61159 -0.01165,0.57158 -0.01935,0.62124 -0.09684,0.62124 -0.04629,0 -0.0966,-0.032 -0.111658,-0.0716 z m 1.766122,0.0421 c -0.0174,-0.0178 -0.03161,-0.38159 -0.03161,-0.80923 0,-0.78806 0.02851,-0.92777 0.171999,-0.83905 0.04196,0.0251 0.05299,0.23736 0.04373,0.8438 -0.01055,0.68828 -0.02276,0.81126 -0.08238,0.82267 -0.03851,0.01 -0.08419,-5.5e-4 -0.10164,-0.0186 z m 0.594327,-0.0274 c -0.009,-0.0303 -0.0102,-0.40717 -0.0038,-0.83582 0.01262,-0.73848 0.01794,-0.77917 0.101652,-0.77917 0.08101,0 0.08832,0.0333 0.08832,0.40654 0,0.2236 0.01877,0.40655 0.04191,0.40655 0.02305,0 0.196909,-0.18118 0.386312,-0.4026 0.338223,-0.39549 0.442644,-0.48122 0.524504,-0.43056 0.07137,0.0433 0.0463,0.0969 -0.162189,0.34121 -0.111815,0.131 -0.203291,0.25319 -0.203291,0.27172 0,0.0189 0.131713,0.25296 0.292693,0.52098 0.166691,0.27739 0.275723,0.50435 0.253268,0.52668 -0.09556,0.0955 -0.217695,-0.0141 -0.444278,-0.39865 -0.131586,-0.22336 -0.256767,-0.41217 -0.278173,-0.4195 -0.02146,-0.01 -0.122457,0.0838 -0.224566,0.20331 -0.16079,0.18758 -0.185694,0.24531 -0.185944,0.43115 -1.37e-4,0.18049 -0.01387,0.21463 -0.08576,0.21463 -0.04703,0 -0.09277,-0.0247 -0.101641,-0.0566 z m 1.574138,0.0274 c -0.01737,-0.0178 -0.03162,-0.39206 -0.03162,-0.83246 0,-0.63877 0.01254,-0.80565 0.06216,-0.82469 0.113607,-0.0428 0.163625,0.073 0.163625,0.38464 v 0.30722 h 0.44693 c 0.512121,0 0.501773,0.01 0.501773,-0.40764 0,-0.28473 0.06526,-0.38197 0.164974,-0.24572 0.04503,0.0618 0.06092,0.26908 0.06092,0.79371 0,0.39074 -0.01228,0.74283 -0.0274,0.78204 -0.01509,0.0392 -0.06589,0.0716 -0.112938,0.0716 -0.07652,0 -0.0855,-0.0364 -0.0855,-0.35242 0,-0.21377 -0.02139,-0.37368 -0.05422,-0.40658 -0.06029,-0.0603 -0.746109,-0.0752 -0.835936,-0.0186 -0.03283,0.021 -0.05976,0.17668 -0.06783,0.3941 -0.0105,0.28157 -0.02845,0.36236 -0.08336,0.37285 -0.03852,0.01 -0.08419,-0.002 -0.101641,-0.0189 z m 1.580307,-0.0339 c -0.02735,-0.0717 0.03383,-0.16816 0.340532,-0.53938 l 0.217436,-0.26294 -0.08671,-0.12097 c -0.04761,-0.0671 -0.141441,-0.17182 -0.208345,-0.23394 -0.06685,-0.0623 -0.15006,-0.16751 -0.184789,-0.23437 -0.05514,-0.10581 -0.05417,-0.13025 0.008,-0.19198 0.05571,-0.0562 0.177138,-0.0711 0.575653,-0.0706 0.525256,6.2e-4 0.649774,0.0315 0.603973,0.15127 -0.02163,0.0569 -0.119975,0.0729 -0.492226,0.0835 l -0.465087,0.0131 0.237175,0.25285 c 0.130449,0.1391 0.236657,0.29148 0.23603,0.33889 -0.0011,0.0466 -0.102281,0.20761 -0.225884,0.35613 -0.1236,0.1486 -0.224733,0.2852 -0.224733,0.30343 0,0.0187 0.218301,0.0388 0.485104,0.0446 0.420093,0.0115 0.487144,0.0238 0.500252,0.0915 0.0138,0.0723 -0.04038,0.0789 -0.638389,0.0789 -0.515172,0 -0.658618,-0.0137 -0.677547,-0.0625 z m 2.046591,0.028 c -0.0035,-0.11021 0.608744,-1.636 0.663554,-1.65699 0.148003,-0.0569 0.228542,0.0733 0.503155,0.81802 0.154315,0.41797 0.280338,0.78528 0.280078,0.81642 -1.37e-4,0.0303 -0.04259,0.0568 -0.09418,0.0568 -0.06672,0 -0.115462,-0.053 -0.169406,-0.18198 -0.08699,-0.20897 -0.151626,-0.23529 -0.529353,-0.21591 -0.268669,0.0141 -0.269329,0.0143 -0.355959,0.20579 -0.06601,0.14605 -0.11196,0.1921 -0.191993,0.1921 -0.05799,0 -0.105527,-0.0152 -0.105896,-0.0337 z m 0.98077,-0.67885 c -0.04113,-0.2059 -0.215685,-0.64257 -0.256811,-0.64257 -0.03325,0 -0.271513,0.64425 -0.271513,0.73424 0,0.0189 0.124511,0.0335 0.276704,0.0335 h 0.276701 z m 0.586015,0.68257 c -0.06383,-0.0637 -0.02121,-0.14444 0.24095,-0.45575 0.149076,-0.17709 0.271051,-0.34874 0.271051,-0.38151 0,-0.0329 -0.111818,-0.18765 -0.248464,-0.34427 -0.13666,-0.15665 -0.248477,-0.31337 -0.248477,-0.34815 0,-0.11669 0.171403,-0.15694 0.669141,-0.15694 0.394961,0 0.506266,0.0144 0.553472,0.0718 0.09574,0.11539 -0.02439,0.15327 -0.488501,0.15402 -0.229837,4.8e-4 -0.417879,0.0142 -0.417879,0.0296 0,0.0167 0.101652,0.13698 0.225882,0.26828 0.124233,0.13143 0.225879,0.27404 0.225879,0.31709 0,0.0424 -0.101646,0.1952 -0.225879,0.33804 -0.12423,0.14273 -0.225882,0.28088 -0.225882,0.30689 0,0.0285 0.186041,0.0532 0.485103,0.0605 0.420096,0.0119 0.487149,0.0238 0.500254,0.0915 0.01378,0.072 -0.04025,0.0791 -0.635695,0.0791 -0.35796,0 -0.66438,-0.0138 -0.680955,-0.0294 z m 2.278035,-0.0328 c -0.02852,-0.0344 -0.14043,-0.0848 -0.248422,-0.11218 -0.391764,-0.0986 -0.62657,-0.48218 -0.525334,-0.85817 0.06809,-0.25272 0.19898,-0.39507 0.442543,-0.48098 0.11776,-0.041 0.266662,-0.10329 0.330904,-0.13718 0.09691,-0.0521 0.131533,-0.0524 0.203299,-0.004 0.0475,0.0329 0.162121,0.0722 0.254569,0.0899 0.315449,0.0578 0.577324,0.36827 0.577324,0.6844 0,0.3419 -0.261174,0.64589 -0.618054,0.71932 -0.07908,0.0169 -0.167918,0.0592 -0.197519,0.0945 -0.06809,0.0818 -0.152355,0.0825 -0.21931,0.004 z m -0.01396,-0.80744 0.01266,-0.53026 H 35.11385 c -0.182731,0 -0.431243,0.25794 -0.457084,0.4744 -0.02651,0.22237 0.04664,0.37044 0.251405,0.50841 0.269658,0.18168 0.293614,0.14654 0.307991,-0.45255 z m 0.535847,0.48015 c 0.08557,-0.0399 0.185231,-0.13115 0.221408,-0.20105 0.08612,-0.16663 0.08391,-0.44724 -0.0052,-0.57369 -0.08321,-0.11878 -0.293582,-0.23567 -0.424185,-0.23567 -0.0879,0 -0.09261,0.0261 -0.09261,0.51198 0,0.28152 0.01351,0.52548 0.03016,0.54208 0.0457,0.0444 0.09984,0.0368 0.269986,-0.0431 z m 0.682248,0.36338 c -0.02651,-0.0257 0.0315,-0.19631 0.382055,-1.11625 0.196331,-0.51536 0.302784,-0.64263 0.430599,-0.51477 0.03725,0.0367 0.192447,0.39729 0.34484,0.80033 0.152396,0.40289 0.297409,0.72975 0.322252,0.72634 0.02489,-0.006 0.17435,-0.35002 0.332235,-0.7703 0.157876,-0.4203 0.316905,-0.77552 0.353383,-0.78959 0.150178,-0.0577 0.230847,0.0731 0.50473,0.81896 0.153326,0.41745 0.278573,0.78583 0.278318,0.81859 -1.33e-4,0.0352 -0.04075,0.0544 -0.101111,0.0441 -0.104369,-0.015 -0.137415,-0.0864 -0.46398,-1.00364 -0.155422,-0.43661 -0.156778,-0.43544 -0.450219,0.39966 l -0.212795,0.60561 h -0.245256 c -0.239436,0 -0.246891,-0.007 -0.314035,-0.1645 -0.0897,-0.21486 -0.127018,-0.23423 -0.449262,-0.23423 -0.322681,0 -0.352876,0.0163 -0.444383,0.23573 -0.06527,0.15694 -0.187905,0.22229 -0.267377,0.14289 z m 0.974896,-0.59456 c 0.03018,-0.052 -0.211167,-0.69772 -0.263137,-0.70501 -0.0498,-0.01 -0.295246,0.65071 -0.263147,0.70501 0.01102,0.0192 0.129419,0.0337 0.263147,0.0337 0.133719,0 0.252135,-0.0152 0.263137,-0.0337 z m 2.244131,-0.20662 c 0,-0.68063 0.01196,-0.83855 0.06452,-0.85869 0.139841,-0.0542 0.16374,0.0851 0.151213,0.8794 -0.01213,0.77499 -0.01356,0.78476 -0.114027,0.79903 l -0.101653,0.0144 z m 0.496947,0.7337 c 0,-0.0527 0.121966,-0.24159 0.271054,-0.4218 0.14908,-0.18025 0.271059,-0.34045 0.271059,-0.35593 0,-0.0155 -0.111817,-0.15352 -0.24847,-0.30678 -0.272313,-0.30508 -0.320129,-0.4733 -0.146826,-0.51641 0.05584,-0.0141 0.325264,-0.0199 0.598584,-0.0121 0.462438,0.0123 0.496934,0.0198 0.496934,0.10363 0,0.083 -0.03447,0.0909 -0.440464,0.10315 -0.242264,0.01 -0.440467,0.0289 -0.440467,0.0506 0,0.0204 0.101638,0.15268 0.225884,0.29455 0.124228,0.14211 0.22588,0.26992 0.22588,0.28434 0,0.0145 -0.111821,0.16292 -0.248466,0.33004 -0.136667,0.16703 -0.248471,0.31666 -0.248471,0.33249 0,0.016 0.22144,0.0283 0.492098,0.0283 0.380507,0 0.497618,0.0142 0.516414,0.0632 0.01334,0.0344 0.01208,0.0754 -0.0038,0.0899 -0.01492,0.0149 -0.31839,0.0268 -0.674528,0.0268 -0.626079,0 -0.647521,-0.006 -0.647521,-0.0941 z m 1.567654,0.0661 c -0.01738,-0.0178 -0.03162,-0.39202 -0.03162,-0.83247 0,-0.63863 0.01255,-0.80559 0.06216,-0.82462 0.113587,-0.0431 0.163621,0.0729 0.163621,0.38458 v 0.30724 h 0.448158 0.448165 l 0.02946,-0.30503 c 0.03725,-0.38678 0.04946,-0.42221 0.13421,-0.38969 0.05903,0.0234 0.06953,0.15163 0.06953,0.85759 0,0.78879 -0.0052,0.83101 -0.0866,0.83101 -0.113398,0 -0.131023,-0.0618 -0.104744,-0.36522 0.03498,-0.40389 -0.01005,-0.44818 -0.454016,-0.44731 -0.204114,4.5e-4 -0.395586,0.0167 -0.425503,0.0348 -0.0329,0.021 -0.05975,0.17668 -0.06783,0.39407 -0.01048,0.28158 -0.02843,0.36233 -0.08335,0.37287 -0.03852,0.01 -0.0842,-0.002 -0.101657,-0.0189 z m 1.579609,-0.003 c -0.06382,-0.0638 -0.02121,-0.14442 0.240936,-0.4558 0.149088,-0.17715 0.271062,-0.34879 0.271062,-0.38139 0,-0.0328 -0.111811,-0.18758 -0.24847,-0.34438 -0.268556,-0.30793 -0.29602,-0.38595 -0.161087,-0.45815 0.136162,-0.0727 1.064728,-0.0607 1.127397,0.0149 0.09186,0.11061 -0.04818,0.15983 -0.493092,0.17355 l -0.425406,0.0136 0.235862,0.26023 c 0.129719,0.14317 0.235851,0.294 0.235851,0.33535 0,0.0408 -0.101646,0.19195 -0.225878,0.3348 -0.12424,0.14276 -0.22588,0.28089 -0.22588,0.30687 0,0.0286 0.186034,0.0529 0.485104,0.0606 0.42009,0.0115 0.487135,0.024 0.500245,0.0915 0.0138,0.0722 -0.04026,0.0788 -0.635686,0.0788 -0.357958,0 -0.664394,-0.0141 -0.680958,-0.0292 z m 2.214294,-0.004 c -0.02775,-0.044 0.520348,-1.51899 0.60092,-1.61611 0.07173,-0.0863 0.154706,-0.0872 0.224998,-0.005 0.07416,0.0892 0.628332,1.57451 0.60343,1.61711 -0.01092,0.0191 -0.06028,0.0337 -0.109821,0.0337 -0.0613,0 -0.11245,-0.0544 -0.160519,-0.16946 -0.09153,-0.21971 -0.121709,-0.23573 -0.444391,-0.23573 -0.320427,0 -0.387911,0.0342 -0.45456,0.23347 -0.04784,0.14305 -0.205648,0.22785 -0.260057,0.13976 z m 0.962347,-0.63445 c -0.0021,-0.11878 -0.195923,-0.62911 -0.24773,-0.649 -0.0484,-0.0192 -0.296788,0.63718 -0.263129,0.69431 0.01099,0.019 0.130609,0.0337 0.265803,0.0337 0.204265,0 0.245679,-0.0137 0.245056,-0.0789 z m 1.060328,0.55552 c -0.106772,-0.10678 -0.110882,-0.13366 -0.110882,-0.72043 0,-0.57511 0.0063,-0.61626 0.106512,-0.73322 0.09863,-0.1146 0.137037,-0.12531 0.519531,-0.14349 0.441231,-0.022 0.603009,0.0287 0.498387,0.15534 -0.03576,0.0427 -0.163357,0.062 -0.420696,0.062 -0.2271,0 -0.390319,0.0212 -0.423638,0.0547 -0.02985,0.0293 -0.05422,0.14085 -0.05422,0.24682 v 0.19256 l 0.417878,0.0134 c 0.335567,0.011 0.41788,0.0264 0.41788,0.0808 0,0.054 -0.08532,0.0725 -0.406585,0.0899 l -0.406586,0.0235 -0.01334,0.25247 c -0.0091,0.17065 0.0072,0.26895 0.04747,0.3031 0.03334,0.027 0.242543,0.0568 0.464587,0.0636 0.342376,0.0119 0.406022,0.0249 0.418844,0.0919 0.01356,0.0714 -0.0321,0.0787 -0.4646,0.0787 -0.449098,0 -0.486802,-0.01 -0.590607,-0.11082 z M 7.5450944,294.31975 c -1.0657441,-0.1219 -2.129039,-0.53382 -3.0032418,-1.16325 -0.4668205,-0.33612 -1.1723653,-1.0709 -1.4909323,-1.55252 -0.7191274,-1.08749 -1.0468658,-2.17865 -1.0437352,-3.47499 0.00332,-1.02601 0.1926276,-1.85657 0.6228968,-2.72065 1.1056358,-2.22043 3.3816727,-3.56829 5.8291479,-3.45216 2.5961732,0.12312 4.7824892,1.76445 5.6217612,4.2205 0.08283,0.24252 0.13126,0.45745 0.114739,0.50946 -0.04302,0.13565 -0.21791,0.23232 -0.356947,0.19744 -0.138173,-0.0345 -0.165663,-0.0789 -0.324251,-0.52415 -0.166398,-0.46691 -0.612088,-1.31654 -0.873541,-1.66511 -0.324476,-0.43274 -0.942771,-1.00606 -1.412887,-1.3101 -2.2980958,-1.48605 -5.2459012,-1.17126 -7.1632476,0.76516 -0.7795261,0.78733 -1.2442741,1.61003 -1.5335427,2.71475 -0.1555672,0.59409 -0.1924237,1.59926 -0.08306,2.26479 0.090606,0.55119 0.3145198,1.25336 0.5478283,1.71789 0.8333864,1.65949 2.4964384,2.88123 4.3259732,3.17799 0.5240757,0.0848 1.4801233,0.0839 1.9503259,-0.003 0.7404929,-0.13503 0.7002269,-0.13338 0.7002269,-0.0282 0,0.0722 -0.043497,0.10611 -0.1862948,0.14455 -0.6433806,0.17323 -1.6195366,0.25218 -2.2412386,0.18084 z m -0.5766814,-0.8414 c -1.2828181,-0.3092 -2.340441,-0.99949 -3.1065281,-2.02779 -0.8422011,-1.13054 -1.2026888,-2.66411 -0.9571547,-4.07211 0.6165794,-3.53569 4.5122334,-5.44724 7.7045928,-3.7804 1.405758,0.7339 2.391199,2.04509 2.731753,3.63483 0.164865,0.76947 0.122378,1.96271 -0.07573,2.1273 -0.125184,0.10384 -0.15855,0.10011 -0.291654,-0.0328 -0.08962,-0.0891 -0.105218,-0.13699 -0.07806,-0.23726 0.06258,-0.23086 0.03098,-1.50401 -0.04584,-1.84605 -0.376125,-1.67482 -1.567853,-3.02642 -3.1583273,-3.58179 -0.6436062,-0.22477 -1.0956895,-0.29099 -1.7968771,-0.26307 -1.225273,0.0494 -2.318847,0.49765 -3.1895254,1.30897 -1.6173192,1.50727 -2.0572685,3.9028 -1.0785331,5.87252 0.7184155,1.44582 1.8863721,2.34856 3.5904174,2.77533 0.089729,0.0233 0.1581163,0.0686 0.1581163,0.10505 0,0.0894 -0.0898,0.0937 -0.406586,0.0181 z m 9.421429,-1.21261 c -0.03285,-0.0394 -0.0454,-0.32383 -0.03717,-0.84434 0.01188,-0.75052 0.01637,-0.78469 0.102738,-0.78469 0.08084,0 0.09179,0.034 0.103657,0.32912 l 0.01328,0.32906 0.461048,-0.0133 0.461036,-0.0134 0.01329,-0.32748 c 0.01186,-0.29177 0.02301,-0.32763 0.102645,-0.32763 0.08629,0 0.08893,0.0286 0.0771,0.84709 -0.01042,0.7173 -0.02266,0.84699 -0.08004,0.84699 -0.0532,0 -0.07268,-0.0826 -0.09033,-0.38397 l -0.02257,-0.38363 H 17.04274 16.590977 l -0.01307,0.36856 c -0.01326,0.37459 -0.07543,0.49261 -0.188028,0.35692 z m 1.465714,0.0201 c -0.02828,-0.0444 0.495753,-1.50688 0.580012,-1.61688 0.02476,-0.0323 0.09589,-0.0536 0.158087,-0.0443 0.102311,0.0131 0.140214,0.0864 0.398534,0.78159 0.297146,0.79938 0.313424,0.85904 0.245618,0.90098 -0.108672,0.0676 -0.191776,-0.0743 -0.411326,-0.70386 -0.136119,-0.3899 -0.253613,-0.66114 -0.276454,-0.63836 -0.02179,0.0227 -0.131438,0.29982 -0.243552,0.61768 -0.112102,0.31789 -0.224499,0.61676 -0.249757,0.6638 -0.04961,0.0923 -0.155615,0.11388 -0.201162,0.0398 z m 1.845951,0.0143 c -0.219483,-0.0421 -0.263412,-0.16362 -0.279547,-0.76801 -0.02304,-0.86343 0.02866,-0.92896 0.715758,-0.90796 0.345124,0.0111 0.428708,0.0253 0.428708,0.0807 0,0.0552 -0.08081,0.0707 -0.406584,0.0802 -0.462032,0.0141 -0.519526,0.0521 -0.519526,0.33495 v 0.17209 l 0.3727,6.3e-4 c 0.398115,4.1e-4 0.515059,0.0381 0.47175,0.15104 -0.02118,0.055 -0.114327,0.0726 -0.424468,0.0836 l -0.397393,0.0131 -0.01386,0.21817 c -0.01993,0.31237 0.02525,0.34638 0.459918,0.3472 0.394509,5.5e-4 0.509421,0.0382 0.465524,0.15291 -0.02263,0.0594 -0.09675,0.0713 -0.401879,0.0666 -0.20576,-0.006 -0.417737,-0.0147 -0.471045,-0.0245 z m 1.088273,-0.027 c -0.01223,-0.0315 -0.01673,-0.41311 -0.0099,-0.84689 0.0119,-0.75475 0.01638,-0.78908 0.102759,-0.78908 0.0825,0 0.09151,0.0344 0.103396,0.39532 0.0078,0.2173 0.02993,0.3952 0.05049,0.3952 0.02061,0 0.19308,-0.18296 0.383274,-0.40651 0.320401,-0.3768 0.473222,-0.48083 0.542114,-0.36943 0.01262,0.0212 -0.0675,0.14071 -0.178031,0.2671 -0.110582,0.12642 -0.201051,0.26048 -0.201051,0.2979 0,0.0371 0.121971,0.27469 0.271061,0.52728 0.283171,0.47969 0.299157,0.51932 0.226811,0.56401 -0.09169,0.0569 -0.212938,-0.0713 -0.423916,-0.44709 -0.119707,-0.21324 -0.233791,-0.3977 -0.253517,-0.40982 -0.01976,-0.0128 -0.119525,0.0688 -0.22179,0.17942 -0.158009,0.17146 -0.185937,0.23113 -0.185937,0.39712 0,0.24135 -0.14227,0.41118 -0.205824,0.24547 z m 1.886933,0.008 c -0.03819,-0.0383 -0.05481,-0.26906 -0.05481,-0.76641 v -0.71144 l -0.259763,-0.0139 c -0.194759,-0.0103 -0.259762,-0.0301 -0.259762,-0.0811 0,-0.0567 0.107622,-0.0699 0.647315,-0.0802 0.599697,-0.0121 0.646197,-0.01 0.632071,0.0683 -0.01179,0.062 -0.07231,0.0852 -0.263316,0.10288 l -0.24808,0.024 -0.02259,0.74175 c -0.02214,0.72906 -0.0488,0.84031 -0.171102,0.71801 z m 0.868804,-0.008 c -0.01219,-0.0315 -0.01673,-0.41311 -0.0099,-0.84689 l 0.01233,-0.78908 0.429172,-0.0119 c 0.503737,-0.0135 0.619418,0.0292 0.739941,0.27592 0.07283,0.14877 0.0774,0.19881 0.03197,0.35 -0.07366,0.24577 -0.222521,0.32957 -0.634101,0.35685 l -0.341145,0.0234 -0.01364,0.29189 c -0.01304,0.27808 -0.06129,0.4083 -0.151362,0.4083 -0.02259,0 -0.05103,-0.0251 -0.06338,-0.0582 z m 0.912431,-0.96071 c 0.08897,-0.0889 0.108652,-0.14297 0.08636,-0.23707 -0.05016,-0.21202 -0.185245,-0.28588 -0.495475,-0.27088 l -0.274917,0.0137 -0.01334,0.30489 -0.01334,0.30491 h 0.29777 c 0.258942,0 0.31278,-0.0148 0.412971,-0.11521 z m 0.851964,0.9778 c -0.14495,-0.0644 -0.32343,-0.28382 -0.383624,-0.47207 -0.07457,-0.23324 -0.03956,-0.64825 0.07317,-0.86549 0.261183,-0.50321 1.040419,-0.498 1.285703,0.01 0.201787,0.41695 0.10538,1.03135 -0.19641,1.25188 -0.137463,0.10048 -0.618475,0.14809 -0.7788,0.0765 z m 0.562238,-0.19701 c 0.357795,-0.18098 0.393327,-1.06785 0.05021,-1.25148 -0.132674,-0.0713 -0.466519,-0.0559 -0.584519,0.0272 -0.210205,0.14719 -0.298966,0.62179 -0.180078,0.96285 0.09198,0.26366 0.450645,0.39498 0.714448,0.26144 z m 0.776584,0.19659 c -0.0388,-0.0238 -0.0501,-0.25652 -0.04103,-0.84293 l 0.0123,-0.8098 h 0.129479 c 0.116714,0 0.168158,0.0603 0.522279,0.6099 0.216036,0.33538 0.411894,0.60987 0.435224,0.60987 0.02363,0 0.04786,-0.27306 0.05502,-0.62116 0.01163,-0.57154 0.01937,-0.62117 0.09681,-0.62117 0.04628,0 0.0966,0.032 0.111672,0.0716 0.01514,0.039 0.02741,0.39353 0.02741,0.7872 0,0.59064 -0.01239,0.72836 -0.07098,0.78694 -0.137432,0.13747 -0.162774,0.11339 -0.621216,-0.59108 -0.21274,-0.32688 -0.4083,-0.60757 -0.434581,-0.62383 -0.03269,-0.0212 -0.04767,0.1692 -0.04767,0.60076 0,0.63911 -0.02621,0.7355 -0.174579,0.64373 z m 1.6741,0.003 c -0.04196,-0.0249 -0.053,-0.23764 -0.04377,-0.84446 0.01195,-0.77556 0.01623,-0.80978 0.102725,-0.80978 0.08646,0 0.09085,0.0339 0.102665,0.79544 0.0094,0.61151 -0.0024,0.8068 -0.04668,0.84447 -0.03238,0.0269 -0.08415,0.0334 -0.115033,0.0144 z m 0.519289,0.0107 c -0.017,-0.018 -0.03112,-0.40381 -0.03112,-0.85929 0,-0.7981 0.0042,-0.82826 0.09033,-0.82826 0.08369,0 0.09033,0.0296 0.09033,0.4067 0,0.48057 0.03438,0.5036 0.286048,0.19174 0.31449,-0.38944 0.530894,-0.59844 0.619959,-0.59844 0.133377,0 0.107437,0.0754 -0.115423,0.33649 -0.111815,0.13092 -0.203291,0.25079 -0.203291,0.26653 0,0.0156 0.134124,0.25437 0.298051,0.5305 0.220807,0.37204 0.284884,0.51521 0.247223,0.55292 -0.08649,0.0863 -0.19157,-0.0201 -0.454247,-0.45879 -0.136289,-0.228 -0.260895,-0.41445 -0.276907,-0.41445 -0.01605,0 -0.10765,0.0958 -0.203631,0.21297 -0.135178,0.16499 -0.179683,0.26343 -0.197445,0.43694 -0.02161,0.21012 -0.07875,0.29573 -0.149979,0.22444 z m 1.469353,-0.0241 c -0.05774,-0.0579 -0.08163,-1.45005 -0.02736,-1.59157 0.01514,-0.0389 0.06497,-0.0717 0.110962,-0.0717 0.07243,0 0.08529,0.043 0.09684,0.32749 l 0.01323,0.32764 0.461044,0.013 0.461046,0.0135 0.01328,-0.32917 c 0.01199,-0.29456 0.02279,-0.32901 0.103665,-0.32901 0.08646,0 0.09085,0.0342 0.102663,0.79553 0.01047,0.67674 0.0031,0.80421 -0.05846,0.85414 -0.113095,0.0937 -0.152001,0.007 -0.166416,-0.385 l -0.01337,-0.36115 h -0.45175 -0.451767 l -0.02256,0.38031 c -0.02228,0.37587 -0.06437,0.46347 -0.171108,0.35659 z m 2.054573,0.0241 c -0.0171,-0.0178 -0.03131,-0.0635 -0.03133,-0.10276 -1.38e-4,-0.0832 0.53486,-1.44403 0.601986,-1.53075 0.02502,-0.0323 0.09589,-0.0535 0.157517,-0.0438 0.09972,0.0122 0.143504,0.0929 0.398261,0.73638 0.157413,0.39757 0.281534,0.77364 0.275824,0.83578 l -0.01042,0.113 -0.680263,0.0134 c -0.374168,0.01 -0.694352,-0.003 -0.711532,-0.0193 z m 1.143336,-0.25348 c 0,-0.0951 -0.395,-1.09151 -0.438434,-1.10599 -0.03514,-0.0123 -0.46784,1.03663 -0.465829,1.12866 4.19e-4,0.0191 0.204024,0.0339 0.452506,0.0339 0.332095,0 0.451757,-0.015 0.451757,-0.057 z m 0.471822,0.22436 c -0.01223,-0.0315 -0.0168,-0.41309 -0.01,-0.847 0.01196,-0.75472 0.01637,-0.78894 0.102756,-0.78894 0.0864,0 0.09085,0.0339 0.102742,0.78458 0.0085,0.54044 -0.0045,0.80409 -0.03941,0.84708 -0.06486,0.0778 -0.127224,0.0797 -0.156203,0.008 z m 0.375547,0.007 c -0.01222,-0.0322 0.112259,-0.41464 0.276769,-0.84934 0.295731,-0.78171 0.300645,-0.7907 0.434539,-0.7907 0.133611,0 0.139186,0.0105 0.416621,0.74543 0.154665,0.40996 0.276644,0.78611 0.271068,0.83577 -0.01679,0.14868 -0.138582,0.10253 -0.238528,-0.0899 l -0.09361,-0.18073 -0.358964,-0.0133 -0.358957,-0.0139 -0.08994,0.19374 c -0.0898,0.19344 -0.216807,0.27284 -0.259006,0.16191 z m 0.913179,-0.5764 c 0.05722,-0.0359 0.05098,-0.0894 -0.04523,-0.38625 -0.06138,-0.18914 -0.131951,-0.34364 -0.156797,-0.34301 -0.02486,5.1e-4 -0.100986,0.15478 -0.1692,0.343 -0.13073,0.36061 -0.130859,0.36013 0.101438,0.39853 0.190174,0.0307 0.20119,0.0302 0.269738,-0.0128 z m 0.684643,0.5696 c -0.03718,-0.0437 -0.04936,-0.29785 -0.04071,-0.84839 0.01188,-0.75056 0.01637,-0.78485 0.102741,-0.78485 0.08248,0 0.09151,0.0346 0.103398,0.39539 0.008,0.21742 0.03119,0.39531 0.05333,0.39531 0.02206,0 0.196672,-0.18307 0.38793,-0.40666 0.256721,-0.30018 0.375802,-0.40645 0.454981,-0.40645 0.150579,0 0.135748,0.0508 -0.09603,0.321 -0.111814,0.13107 -0.203297,0.25778 -0.203297,0.28181 0,0.024 0.121981,0.2526 0.271062,0.50751 0.276942,0.47373 0.30184,0.53671 0.229949,0.58131 -0.09105,0.0561 -0.188196,-0.0444 -0.409549,-0.42917 -0.127617,-0.2211 -0.249894,-0.41303 -0.27173,-0.42642 -0.02178,-0.0139 -0.117273,0.0684 -0.212068,0.18086 -0.137003,0.16337 -0.176997,0.25326 -0.194953,0.43782 -0.02342,0.24128 -0.08399,0.31065 -0.175014,0.20093 z m 1.897224,0.006 c -0.02785,-0.0273 -0.05062,-0.1886 -0.05062,-0.35733 0,-0.29392 -0.01126,-0.32556 -0.271055,-0.76315 -0.149084,-0.25102 -0.271057,-0.47494 -0.271057,-0.49743 0,-0.0713 0.163726,-0.0436 0.234731,0.0376 0.0374,0.0429 0.136728,0.20609 0.220716,0.36144 0.084,0.15532 0.176809,0.28234 0.206274,0.28234 0.02952,0 0.131748,-0.14528 0.227282,-0.32291 0.182236,-0.33876 0.295587,-0.45311 0.372753,-0.37593 0.0293,0.0285 -0.04794,0.20707 -0.224626,0.51779 -0.259593,0.45652 -0.269137,0.48478 -0.269137,0.79667 0,0.32879 -0.05901,0.43667 -0.175194,0.32053 z m 0.898017,0.0137 c -0.05463,-0.0341 -0.07056,-0.18319 -0.08219,-0.76449 -0.0094,-0.46691 0.0042,-0.7547 0.03552,-0.8149 0.04523,-0.0844 0.09166,-0.0929 0.497481,-0.0929 0.40708,0 0.459063,0.01 0.573388,0.10809 0.09942,0.0851 0.125723,0.14686 0.125723,0.29305 0,0.11291 -0.02961,0.21448 -0.07577,0.26085 -0.07091,0.0712 -0.06871,0.0837 0.03494,0.20723 0.232927,0.27679 0.103897,0.70448 -0.241464,0.80044 -0.209379,0.0581 -0.776976,0.0602 -0.867587,0.005 z m 0.893466,-0.25205 c 0.06995,-0.0499 0.100402,-0.11646 0.100402,-0.22272 0,-0.26442 -0.161651,-0.35507 -0.589702,-0.33078 l -0.246049,0.0142 -0.0138,0.24309 c -0.008,0.1337 -0.0041,0.27088 0.01,0.30492 0.03487,0.0903 0.607005,0.0842 0.739335,-0.01 z m -0.06066,-0.80291 c 0.107622,-0.0784 0.10618,-0.29927 -0.0036,-0.3786 -0.05625,-0.0411 -0.182714,-0.0576 -0.378346,-0.0493 l -0.293832,0.0136 -0.01421,0.1741 c -0.02285,0.27857 1.35e-4,0.30026 0.320486,0.30026 0.166802,0 0.320684,-0.025 0.368472,-0.0603 z m 0.854868,1.05436 c -0.207282,-0.084 -0.242,-0.20567 -0.242,-0.84861 0,-0.58102 0.0047,-0.60577 0.112464,-0.71423 0.10726,-0.10738 0.13399,-0.11198 0.576,-0.0996 0.376177,0.0105 0.463519,0.0248 0.463519,0.0806 0,0.0547 -0.08089,0.0709 -0.404226,0.081 -0.222335,0.01 -0.430708,0.0348 -0.463064,0.062 -0.03232,0.0261 -0.05884,0.13775 -0.05884,0.24657 v 0.19775 h 0.35772 c 0.391541,0 0.500632,0.0249 0.500632,0.11297 0,0.0881 -0.109091,0.11294 -0.500632,0.11294 h -0.357717 v 0.23943 c 0,0.13162 0.02449,0.26387 0.05426,0.29362 0.03299,0.0329 0.196141,0.0548 0.417867,0.0553 0.391161,5.2e-4 0.505841,0.0385 0.46203,0.15284 -0.02262,0.0593 -0.100634,0.072 -0.424468,0.0704 -0.218185,-0.003 -0.440273,-0.0216 -0.493526,-0.0414 z m 1.134781,-0.01 c -0.01304,-0.034 -0.01813,-0.41687 -0.01138,-0.85082 l 0.01233,-0.78895 0.429178,-0.0126 c 0.361127,-0.0103 0.452006,0.004 0.573223,0.0762 0.17764,0.10951 0.252782,0.3369 0.188355,0.57016 -0.06454,0.23347 -0.257218,0.33615 -0.631816,0.3363 -0.18898,9e-5 -0.31722,0.0228 -0.347709,0.0583 -0.02649,0.0317 -0.0545,0.1879 -0.06194,0.34648 -0.0085,0.17996 -0.03493,0.29527 -0.07012,0.30699 -0.03113,0.0105 -0.06706,-0.01 -0.08018,-0.0426 z m 0.87197,-0.91955 c 0.131257,-0.0916 0.136649,-0.3451 0.01012,-0.47176 -0.07144,-0.0716 -0.150585,-0.09 -0.37916,-0.09 -0.321722,0 -0.343655,0.0208 -0.343655,0.31628 0,0.2945 0.02293,0.31618 0.333602,0.31618 0.179188,0 0.314628,-0.0242 0.379165,-0.0708 z m 0.527056,0.91579 c -0.01222,-0.0315 -0.0168,-0.41311 -0.01001,-0.84706 l 0.01238,-0.78895 0.11841,-0.0139 c 0.1074,-0.0128 0.155713,0.044 0.519528,0.61892 0.22061,0.34796 0.421439,0.62691 0.446288,0.61992 0.02644,-0.01 0.0504,-0.26824 0.05781,-0.63023 0.0119,-0.58008 0.01793,-0.61751 0.101639,-0.61751 0.08541,0 0.08906,0.034 0.08906,0.83096 0,0.69693 -0.01098,0.83517 -0.06781,0.85688 -0.127445,0.0496 -0.19675,-0.024 -0.545698,-0.57319 -0.539626,-0.84954 -0.515951,-0.84421 -0.515951,-0.11726 0,0.41492 -0.01733,0.62823 -0.05423,0.66508 -0.07013,0.071 -0.123731,0.0692 -0.151602,-0.007 z m 1.661667,0.0207 c -0.04395,-0.0272 -0.05468,-0.22872 -0.04523,-0.84641 0.01192,-0.77561 0.01625,-0.80974 0.102712,-0.80974 0.08084,0 0.09179,0.0342 0.10363,0.32737 l 0.01325,0.3276 h 0.446733 c 0.500116,0 0.51277,-0.01 0.497004,-0.35113 -0.0052,-0.0924 -0.0062,-0.20402 -0.0043,-0.24742 0.0062,-0.0994 0.165318,-0.1054 0.202835,-0.01 0.01514,0.0389 0.0274,0.39108 0.0274,0.78187 0,0.52482 -0.01591,0.73236 -0.06092,0.79388 -0.106341,0.1454 -0.164933,0.0368 -0.165665,-0.30595 -4.23e-4,-0.17864 -0.01726,-0.35103 -0.03762,-0.38317 -0.02688,-0.0419 -0.152492,-0.0551 -0.462367,-0.0441 l -0.425396,0.0133 -0.02259,0.38038 c -0.0221,0.37306 -0.05528,0.44526 -0.170484,0.3722 z m 1.510715,0.01 c -0.07446,-0.0741 -0.01106,-0.21108 0.240883,-0.51925 0.149053,-0.18234 0.271024,-0.34201 0.271054,-0.35457 3.4e-5,-0.013 -0.112832,-0.15239 -0.250819,-0.31055 -0.167122,-0.19161 -0.246304,-0.31962 -0.237179,-0.38367 0.01307,-0.0913 0.04091,-0.0966 0.612294,-0.10864 0.575456,-0.0128 0.598582,-0.01 0.598582,0.0789 0,0.0856 -0.02795,0.0913 -0.451762,0.0913 -0.311107,0 -0.451767,0.0167 -0.451767,0.0528 0,0.0282 0.10165,0.15956 0.225885,0.29099 0.124231,0.13132 0.225882,0.25632 0.225882,0.27788 0,0.0225 -0.111812,0.17465 -0.248469,0.34029 -0.136659,0.16572 -0.248475,0.31198 -0.248475,0.32507 0,0.0135 0.198217,0.024 0.440471,0.024 0.464876,5.2e-4 0.584213,0.0343 0.538821,0.15289 -0.02342,0.0615 -0.119592,0.072 -0.631515,0.072 -0.332068,0 -0.617328,-0.014 -0.633886,-0.0294 z m 1.470911,-0.01 c -0.04392,-0.0272 -0.05467,-0.22872 -0.04523,-0.84641 0.01194,-0.77561 0.01625,-0.80974 0.102728,-0.80974 0.08073,0 0.09179,0.0342 0.103563,0.32425 l 0.01322,0.32445 0.408311,0.0145 c 0.22456,0.01 0.437151,-0.004 0.472432,-0.0226 0.0457,-0.0252 0.06414,-0.126 0.06414,-0.35018 0,-0.27786 0.0099,-0.31391 0.0855,-0.31391 0.047,0 0.09786,0.032 0.112942,0.0717 0.01512,0.0388 0.02741,0.39124 0.02741,0.78197 0,0.5458 -0.01506,0.7309 -0.06475,0.79825 -0.104168,0.14107 -0.155701,0.0303 -0.17036,-0.36428 l -0.01335,-0.3612 h -0.451776 -0.451759 l -0.02257,0.38037 c -0.0221,0.37309 -0.05523,0.44526 -0.170487,0.37223 z M 5.3346906,291.8938 c -0.8386454,-0.62346 -1.3992004,-1.45631 -1.6771911,-2.49207 -0.099805,-0.37177 -0.1151845,-0.52086 -0.1142514,-1.10733 0.00168,-0.57931 0.017702,-0.74004 0.1153335,-1.10731 0.5600071,-2.10628 2.4481582,-3.49295 4.593954,-3.3739 1.2853465,0.0715 2.4578004,0.66275 3.2415534,1.63507 0.347902,0.43167 0.74268,1.20643 0.874787,1.71674 0.121756,0.47044 0.162477,1.25152 0.09076,1.74172 -0.09034,0.618 -0.398351,1.46925 -0.624312,1.72553 -0.09625,0.10922 -0.267102,0.10015 -0.330028,-0.018 -0.04372,-0.0815 -0.01968,-0.16328 0.156462,-0.53092 0.30117,-0.62861 0.438049,-1.20887 0.438049,-1.85722 0,-1.85757 -1.222901,-3.46024 -3.0337823,-3.97602 -0.4341596,-0.12369 -1.3088014,-0.16909 -1.7828977,-0.0923 -1.717683,0.27702 -3.1175007,1.62926 -3.4730948,3.35502 -0.08895,0.43166 -0.092564,1.18481 -0.00772,1.62421 0.2071052,1.07365 0.8358373,2.0696 1.6920895,2.68072 0.3023369,0.21574 0.3961093,0.3389 0.2582096,0.3389 -0.03514,0 -0.223169,-0.11851 -0.4178872,-0.26315 z m 3.9198715,-0.29582 c -0.087366,-0.10527 -0.011618,-0.19285 0.3485725,-0.40276 0.8412944,-0.49049 1.4171224,-1.24584 1.6603744,-2.17806 0.109934,-0.42122 0.110224,-1.24065 5.91e-4,-1.64615 -0.420256,-1.55459 -1.8027488,-2.62456 -3.3880864,-2.62221 -1.5381806,0.004 -2.8776172,0.95764 -3.3726543,2.4059 -0.2616078,0.76528 -0.2665117,1.5016 -0.015285,2.29696 0.063352,0.20049 0.1024492,0.37733 0.086875,0.3929 -0.044848,0.0439 -0.1054779,-0.0769 -0.2277957,-0.45981 -0.3424992,-1.07048 -0.1660103,-2.29169 0.4656404,-3.22185 0.099665,-0.14665 0.355069,-0.43138 0.567559,-0.63248 0.3093618,-0.29281 0.4790805,-0.41131 0.851691,-0.59459 0.6558929,-0.32244 0.9269989,-0.38578 1.6625084,-0.38817 0.6449251,-0.004 0.9158181,0.0463 1.4527644,0.26404 1.0178222,0.4111 1.8560672,1.3523 2.1631252,2.42878 0.122813,0.43062 0.163224,1.15081 0.09011,1.60601 -0.170937,1.0641 -0.809419,2.02022 -1.7256701,2.58414 -0.3831249,0.23583 -0.5305154,0.27559 -0.6202878,0.16735 z m -1.9699186,-0.45992 c -0.4121824,-0.0804 -1.0788317,-0.41156 -1.0979085,-0.54531 -0.022248,-0.15597 0.097248,-0.15473 0.403307,0.008 0.4685725,0.24356 0.84785,0.3401 1.3365989,0.3401 0.7724376,0 1.3684591,-0.23715 1.9227268,-0.76487 0.3729043,-0.35498 0.5756583,-0.66543 0.7444193,-1.14008 0.102653,-0.28868 0.117996,-0.40409 0.119046,-0.89594 0.0013,-0.49928 -0.013,-0.60549 -0.12115,-0.91614 -0.255992,-0.73521 -0.7754349,-1.32921 -1.4525518,-1.66107 -0.5264411,-0.25787 -0.8565822,-0.32942 -1.4024407,-0.3038 -0.7926219,0.0369 -1.3735669,0.30518 -1.973831,0.91011 -0.3850518,0.38815 -0.4650266,0.41075 -0.1610252,0.0442 1.1195678,-1.34529 3.1201185,-1.45925 4.387658,-0.24979 0.7560687,0.72138 1.0991537,1.89451 0.8476427,2.8985 -0.157045,0.62687 -0.368088,1.00242 -0.814995,1.45033 -0.3161075,0.31671 -0.4597653,0.42326 -0.772335,0.57289 -0.6398309,0.3065 -1.2781431,0.38924 -1.9651615,0.25526 z m 9.1142805,-2.94143 c -0.08773,-0.0353 -0.08213,-7.16635 0.0063,-7.23932 0.04345,-0.0357 0.353612,-0.0479 1.027758,-0.0392 l 0.965559,0.0127 0.0226,1.33276 0.0226,1.33266 h 1.264926 1.264928 l 0.02258,-1.2875 c 0.01238,-0.70815 0.03909,-1.31296 0.05916,-1.34406 0.02734,-0.0415 0.279564,-0.0571 1.003579,-0.0571 0.909839,0 0.969798,0.01 1.013792,0.0874 0.03117,0.0581 0.04672,1.25617 0.04672,3.5718 0,2.31553 -0.01571,3.51381 -0.04672,3.57185 -0.04406,0.0821 -0.103953,0.0874 -1.013792,0.0874 -0.724015,0 -0.976219,-0.0143 -1.003579,-0.0569 -0.02014,-0.0308 -0.04672,-0.69681 -0.05916,-1.47954 l -0.0226,-1.4233 h -1.265059 -1.264931 l -0.0226,1.46803 -0.0226,1.46836 -0.971295,0.01 c -0.534206,0.008 -0.996693,-0.004 -1.027754,-0.015 z m 1.651188,-6.71132 c 0.02985,-0.029 0.05421,-0.11116 0.05421,-0.18079 v -0.12653 H 17.38008 c -0.788434,0 -0.835434,0.0167 -0.728301,0.25135 0.04977,0.10912 0.05537,0.11002 0.697131,0.11002 0.442975,0 0.664082,-0.0172 0.701202,-0.0545 z m 4.705763,-0.0333 c 0.02575,-0.0481 0.04674,-0.12926 0.04674,-0.18073 0,-0.09 -0.02214,-0.0931 -0.745405,-0.0931 -0.723194,0 -0.74541,0.005 -0.74541,0.0931 0,0.0522 0.02109,0.13266 0.04676,0.18073 0.04288,0.0801 0.100387,0.0873 0.698643,0.0873 0.598252,0 0.655722,-0.01 0.69864,-0.0873 z m 1.054569,6.72789 c -0.196504,-0.0789 -0.250418,-0.23428 -0.231104,-0.66483 0.01772,-0.39552 0.02019,-0.40241 1.135552,-3.23658 0.614798,-1.5621 1.14575,-2.89369 1.179905,-2.9591 0.03423,-0.0654 0.126186,-0.1798 0.204514,-0.25437 l 0.142422,-0.13546 0.866786,-0.014 c 0.476726,-0.01 0.931002,-0.004 1.009495,0.0129 0.343279,0.0646 0.276551,-0.0821 2.285003,5.01616 0.552165,1.40166 0.621719,1.70005 0.464443,1.99199 -0.16182,0.30049 -0.0244,0.28974 -3.666979,0.28657 -1.810062,-0.003 -3.335583,-0.0212 -3.390037,-0.042 z m 4.703269,-1.33721 c 0.03934,-0.0153 0.07208,-0.0608 0.07287,-0.10157 0.0013,-0.0405 -0.287329,-0.94345 -0.640198,-2.00566 -0.49031,-1.47579 -0.658693,-1.93126 -0.714085,-1.93126 -0.0534,0 -0.130404,0.17615 -0.291782,0.66644 -0.120617,0.36638 -0.419948,1.2355 -0.665176,1.93134 -0.245237,0.69569 -0.445879,1.29864 -0.445881,1.34015 -5e-6,0.0408 0.02541,0.0857 0.05644,0.098 0.0814,0.0329 2.54259,0.0348 2.627816,0.005 z m -0.244771,-5.40931 c 0,-0.0584 -0.04272,-0.14479 -0.0951,-0.19206 -0.08299,-0.0746 -0.182249,-0.0876 -0.779287,-0.10053 -0.376309,-0.01 -0.763719,0.005 -0.86092,0.0241 -0.185233,0.0397 -0.37876,0.23482 -0.323007,0.325 0.02092,0.0335 0.356024,0.051 1.044507,0.051 h 1.013798 z m 3.328822,6.76257 c -0.01694,-0.0177 -0.031,-1.63963 -0.031,-3.6058 0,-2.7203 0.01293,-3.58797 0.05422,-3.62912 0.08289,-0.0827 1.904219,-0.0756 1.973446,0.01 0.03712,0.0439 0.04771,1.03571 0.03943,3.64792 l -0.01162,3.58656 -0.996797,0.013 c -0.548233,0.01 -1.010724,-0.004 -1.027755,-0.0192 z m 1.729315,-6.74411 c 0.02574,-0.0481 0.04676,-0.12934 0.04676,-0.18071 0,-0.0901 -0.02213,-0.0931 -0.745412,-0.0931 H 31.88301 v 0.12648 c 0,0.21752 0.05589,0.23498 0.752853,0.23498 0.590895,0 0.648313,-0.01 0.691193,-0.0873 z m 1.413338,6.74349 c -0.08064,-0.0326 -0.08289,-7.15373 -0.0035,-7.23429 0.03885,-0.0386 0.327206,-0.0549 1.011633,-0.0549 0.831361,0 0.961027,0.01 0.984839,0.0716 0.01514,0.0394 0.02741,0.60858 0.02741,1.26494 0,1.01334 0.01,1.19354 0.06558,1.19354 0.03606,0 0.447754,-0.45218 0.914816,-1.00488 0.467062,-0.55264 0.962358,-1.12229 1.100654,-1.26586 l 0.251437,-0.26073 1.171611,0.0122 c 1.056539,0.0112 1.171063,0.0199 1.166081,0.0865 -0.0039,0.0407 -0.511268,0.62601 -1.12941,1.30002 -0.618125,0.67394 -1.130237,1.24397 -1.138013,1.2667 -0.01304,0.0374 2.193581,3.83602 2.398079,4.12775 0.07411,0.10559 0.09976,0.11746 0.14659,0.0676 0.03122,-0.0331 0.53947,-1.47315 1.129422,-3.20009 0.589949,-1.7268 1.119541,-3.22244 1.176862,-3.32355 0.178393,-0.31458 0.29961,-0.34326 1.384659,-0.327 0.922885,0.0138 0.93305,0.0149 1.052505,0.12688 0.06633,0.0623 0.143295,0.15362 0.171015,0.20334 0.101914,0.18275 2.369115,6.86724 2.347906,6.92253 -0.01683,0.0431 -0.259193,0.0573 -1.032521,0.0573 -1.193149,0 -1.056382,0.0803 -1.307085,-0.76797 -0.09183,-0.31068 -0.187553,-0.5901 -0.212818,-0.62124 -0.03446,-0.0417 -0.313353,-0.0564 -1.113348,-0.056 -0.587071,3.8e-4 -1.09066,0.0156 -1.119077,0.034 -0.02835,0.0188 -0.137558,0.30763 -0.242525,0.64301 -0.104967,0.33547 -0.222083,0.64538 -0.260261,0.68893 -0.06424,0.0727 -0.223337,0.0788 -2.113913,0.0788 H 39.524647 L 39.41636,288.0958 c -0.05959,-0.0711 -0.440578,-0.71624 -0.846716,-1.43438 -0.708848,-1.25343 -0.838708,-1.46375 -0.903528,-1.46375 -0.01624,0 -0.226499,0.2138 -0.467349,0.47521 l -0.437871,0.47489 v 0.98399 c 0,0.70518 -0.01538,0.99934 -0.05422,1.0382 -0.03895,0.0388 -0.316576,0.0538 -0.982581,0.0519 -0.510609,-0.004 -0.953786,-0.0138 -0.984849,-0.0263 z m 11.175296,-2.97222 c 0.03277,-0.0854 -0.47405,-2.19733 -0.545831,-2.27444 -0.0907,-0.0974 -0.140712,0.0128 -0.294434,0.64605 -0.07831,0.32301 -0.204882,0.8042 -0.281223,1.06936 -0.07626,0.26505 -0.12646,0.51417 -0.1114,0.55334 0.03918,0.102 1.193932,0.10708 1.232888,0.01 z m -9.462989,-3.79446 c 0.106699,-0.2343 0.05836,-0.25139 -0.707142,-0.25139 -0.765455,0 -0.813821,0.0178 -0.707134,0.25139 0.04986,0.10927 0.05481,0.10999 0.707134,0.10999 0.652369,0 0.65735,-4.3e-4 0.707142,-0.10999 z m 4.248514,-0.01 c 0.318919,-0.22101 0.260472,-0.24228 -0.664594,-0.24228 h -0.836411 l -0.08739,0.14367 c -0.04804,0.0787 -0.07708,0.16029 -0.06449,0.18062 0.01256,0.0212 0.350972,0.0366 0.751929,0.0366 0.714078,0 0.732541,-0.005 0.900857,-0.11907 z m 5.703823,0.0768 c 0.061,-0.0987 -0.08304,-0.27554 -0.26402,-0.3243 -0.243812,-0.0662 -1.551263,-0.0346 -1.6847,0.0394 -0.106212,0.0599 -0.173202,0.20678 -0.127546,0.28062 0.03618,0.0587 2.040166,0.0622 2.076266,0.007 z"
       id="path9524" />
    <path
       style="fill:#0271c6;stroke-width:0.04517604"
       d="m 7.824775,295.09282 c 0.057022,-0.0236 -0.055328,-0.0442 -0.3162327,-0.0653 -1.6959467,-0.12722 -3.4808975,-1.03666 -4.6429644,-2.36574 -0.3564866,-0.40774 -0.8611818,-1.16852 -1.0753758,-1.62127 -0.2519231,-0.53242 -0.4807931,-1.25116 -0.5732164,-1.80012 -0.044447,-0.26394 -0.092375,-0.46844 -0.1064982,-0.45423 -0.014051,0.0144 -0.03988,-0.15605 -0.05724,-0.37813 -0.035644,-0.4555 0.01148,-1.2813 0.070962,-1.24457 0.021506,0.0138 0.039088,-0.0276 0.039088,-0.0919 0,-0.2076 0.1847532,-0.97607 0.3460913,-1.43953 0.4921912,-1.41392 1.5123021,-2.72543 2.7484755,-3.53325 2.8262209,-1.84689 6.4404397,-1.50859 8.8884077,0.83194 0.244337,0.23366 0.28573,0.43115 0.124237,0.59268 -0.166294,0.1663 -0.277547,0.11744 -0.759636,-0.33328 -0.914559,-0.85491 -1.863692,-1.34342 -3.1434036,-1.61785 -0.6642688,-0.14246 -1.9271919,-0.14078 -2.6003732,0.006 -0.8768387,0.18757 -1.8243754,0.60545 -2.5370854,1.11859 -0.4693469,0.3379 -1.2155519,1.11279 -1.5595469,1.61982 -0.5281917,0.77818 -0.9008938,1.66551 -1.0815987,2.57501 -0.1227165,0.61748 -0.1146132,1.8395 0.01623,2.44237 0.1976493,0.91099 0.5096802,1.67285 0.9839722,2.40261 1.0124897,1.55782 2.5092794,2.57026 4.4030714,2.97827 0.5457553,0.11775 2.0697026,0.11796 2.6191348,4.1e-4 0.6048084,-0.12928 1.3109004,-0.38058 1.8768344,-0.66818 0.423808,-0.21535 0.525879,-0.25178 0.547469,-0.19567 0.03607,0.0939 -0.05225,0.15479 -0.685023,0.46995 -0.838281,0.41768 -1.6320562,0.64855 -2.4375568,0.70893 -0.2608906,0.0203 -0.3732283,0.0419 -0.3162332,0.0654 0.049597,0.0202 -0.1198164,0.0344 -0.3859555,0.0344 -0.2661347,0 -0.4355469,-0.0149 -0.3859545,-0.0344 z m -0.3820404,-0.77299 c -1.7531169,-0.24451 -3.1939462,-1.07653 -4.2164112,-2.43492 -0.544903,-0.72388 -0.9331024,-1.59354 -1.1411427,-2.55626 -0.1081454,-0.50059 -0.1094725,-1.70272 -0.00332,-2.24848 0.5971667,-3.04601 3.2588307,-5.1688 6.3087255,-5.03154 0.6958921,0.0307 1.1049145,0.10418 1.7166878,0.30534 1.496894,0.4925 2.794099,1.60233 3.512064,3.00479 0.218543,0.42692 0.508608,1.17285 0.508608,1.3081 0,0.0894 -0.164965,0.24499 -0.259757,0.24411 -0.14461,-0.002 -0.194589,-0.0718 -0.351891,-0.49462 -0.59588,-1.60265 -1.549493,-2.69683 -2.934677,-3.3673 -0.8673161,-0.41973 -1.5576358,-0.57975 -2.5072689,-0.58103 -1.2094158,-0.003 -2.208374,0.29971 -3.1966115,0.96405 -1.3946508,0.93755 -2.3267619,2.42256 -2.544869,4.05435 -0.084928,0.63516 -0.029948,1.55537 0.1303345,2.18142 0.2957455,1.15512 0.766736,1.9838 1.5951036,2.80617 0.8656122,0.85962 2.0073784,1.43864 3.2421264,1.64466 0.5818348,0.0971 1.6508568,0.0733 2.1861266,-0.0491 0.1928197,-0.0433 0.3642585,-0.0667 0.3809873,-0.0505 0.188243,0.18818 -1.6211243,0.41136 -2.4256631,0.29922 z m -0.4488077,-0.81648 c -0.9252662,-0.18148 -1.8906151,-0.70703 -2.6036154,-1.41746 -1.0325153,-1.02876 -1.5555404,-2.28249 -1.5555404,-3.7286 0,-2.50756 1.6708348,-4.60274 4.1110255,-5.15489 0.894638,-0.20246 1.908934,-0.15102 2.8062373,0.14224 1.8993081,0.62053 3.2993881,2.31681 3.5677681,4.32236 0.0577,0.43102 0.03172,1.40369 -0.04259,1.599 -0.05335,0.13999 -0.162487,0.19207 -0.275719,0.13162 -0.123369,-0.0666 -0.132053,-0.12807 -0.08273,-0.58981 0.08588,-0.80473 -0.07819,-1.81263 -0.416517,-2.55896 -0.311534,-0.68708 -0.974356,-1.48834 -1.598107,-1.93198 -1.5325867,-1.08984 -3.4778251,-1.22617 -5.1780532,-0.3629 -1.0856837,0.5513 -1.9856706,1.58169 -2.4061598,2.7544 -0.208474,0.58154 -0.2784828,1.02692 -0.2768658,1.76199 0.00198,0.54048 0.021452,0.75838 0.10005,1.07712 0.4725853,1.91505 1.9375577,3.38328 3.8366094,3.84493 0.180142,0.0428 0.3275286,0.0977 0.3275286,0.11985 0,0.0451 -0.037273,0.0441 -0.3132827,-0.01 z m -1.5389397,-1.4938 C 4.5760344,291.40554 3.9524547,290.5196 3.6632375,289.4642 3.5550153,289.06921 3.5393614,288.92999 3.538764,288.35729 c -0.00104,-0.52667 0.01877,-0.73257 0.098834,-1.05141 0.2091979,-0.83316 0.5902334,-1.51977 1.1603934,-2.09081 0.6058894,-0.60667 1.2737546,-0.99209 2.0800427,-1.20016 0.5812114,-0.14998 1.5822167,-0.15137 2.1681421,-0.006 1.5736138,0.39791 2.8014578,1.61142 3.2393218,3.20154 0.07995,0.29043 0.09799,0.48294 0.100705,1.07648 0.0044,0.8723 -0.08958,1.31338 -0.418681,1.97264 -0.17903,0.35881 -0.228445,0.42376 -0.330826,0.43569 -0.202566,0.024 -0.195258,-0.11365 0.03157,-0.59258 0.113444,-0.23951 0.257598,-0.63418 0.320347,-0.87712 0.102942,-0.39855 0.112006,-0.50345 0.0928,-1.07413 -0.01562,-0.46363 -0.04729,-0.72212 -0.118818,-0.96818 -0.451234,-1.55351 -1.649078,-2.67135 -3.2093444,-2.9952 -0.5983573,-0.12422 -1.4342202,-0.0929 -2.0012326,0.0736 -1.0069116,0.29749 -1.8412153,0.91866 -2.4154651,1.79826 -1.0823281,1.65799 -0.8735187,3.86086 0.5033688,5.31032 0.1765389,0.18584 0.4481258,0.42864 0.6035226,0.53955 0.1554025,0.11097 0.2825533,0.20999 0.2825533,0.2202 0,0.0433 -0.080513,0.01 -0.2710599,-0.12386 z m 3.7747262,-0.39547 c -0.047534,-0.0764 0.023694,-0.16964 0.1914628,-0.24954 0.5228067,-0.2485 1.2264428,-0.92669 1.5084118,-1.45379 0.277573,-0.51889 0.406951,-1.03618 0.411063,-1.6438 0.0045,-0.6168 -0.07567,-0.98163 -0.332893,-1.52125 -0.41418,-0.86872 -1.1766013,-1.52846 -2.141974,-1.85363 -0.3276962,-0.11032 -0.4246203,-0.12172 -1.0390502,-0.12292 -0.6486865,-0.002 -0.6956895,0.009 -1.1000673,0.14528 -1.2333863,0.42747 -2.080876,1.33553 -2.4082653,2.58048 -0.063712,0.24201 -0.09179,0.50228 -0.095559,0.88512 -0.0048,0.47571 -0.00972,0.50884 -0.040719,0.27096 -0.071768,-0.55116 0.055834,-1.31306 0.3163383,-1.88755 0.4380627,-0.96612 1.3300528,-1.7245 2.3885907,-2.03098 0.2933996,-0.0845 0.4581343,-0.10146 0.9848022,-0.0998 0.7410165,0.005 1.0172145,0.0633 1.6263385,0.35757 0.7302381,0.35292 1.3083881,0.93051 1.6743211,1.67298 0.303271,0.61544 0.358907,0.87598 0.356875,1.67147 -0.0019,0.64382 -0.0092,0.69883 -0.147484,1.10009 -0.209955,0.60848 -0.4579,1.00607 -0.908357,1.45643 -0.5270392,0.52685 -1.1435604,0.88521 -1.2438903,0.72285 z m -2.0128581,-0.48082 c -0.4071666,-0.0872 -1.03905,-0.40333 -1.03905,-0.51923 0,-0.11705 0.03265,-0.11223 0.3203089,0.0468 0.8342077,0.46265 1.8263377,0.48816 2.6594977,0.0693 0.8053759,-0.40555 1.3348581,-1.10775 1.5184031,-2.01348 0.290326,-1.43274 -0.532272,-2.82689 -1.9688013,-3.33657 -0.1364074,-0.0487 -0.2129017,-0.0892 -0.1699885,-0.0909 0.1483811,-0.01 0.6785608,0.22313 0.9820199,0.42487 0.8217299,0.54627 1.3116989,1.47482 1.3116989,2.48566 0,0.47032 -0.107924,0.9217 -0.329444,1.37795 -0.264117,0.54388 -0.7635164,1.04349 -1.3052324,1.3058 -0.6383704,0.30899 -1.3104578,0.39397 -1.9794123,0.25028 z m -2.9328804,-1.89884 c 0.00312,-0.0533 0.012885,-0.0631 0.027313,-0.0267 0.01304,0.0326 0.011442,0.072 -0.00402,0.0864 -0.015019,0.0148 -0.025702,-0.0119 -0.023654,-0.0595 z m -0.041575,-0.1995 c 0,-0.0622 0.010278,-0.0874 0.022794,-0.057 0.01252,0.0305 0.01252,0.0819 0,0.11296 -0.01252,0.0308 -0.022794,0.01 -0.022794,-0.0571 z m 12.1212011,-0.8687 c -0.01206,-0.0309 -0.01665,-1.6532 -0.01029,-3.60371 l 0.01174,-3.54629 h 0.971279 0.971289 l 0.01204,1.28371 c 0.0081,0.85502 0.02867,1.30399 0.06197,1.34398 0.06877,0.0827 2.477253,0.0884 2.559754,0.01 0.03952,-0.0392 0.05421,-0.38781 0.05421,-1.28384 0,-0.67629 0.01232,-1.2618 0.02741,-1.30106 0.02375,-0.0622 0.153853,-0.0722 0.989047,-0.0722 0.835199,0 0.965227,0.01 0.98904,0.0722 0.03591,0.0932 0.03591,6.99187 0,7.08523 -0.02374,0.062 -0.15427,0.0713 -0.993869,0.0713 -0.531554,0 -0.970837,-0.01 -0.976176,-0.0119 -0.0058,-0.01 -0.02062,-0.67205 -0.03396,-1.47953 l -0.02421,-1.46889 H 19.66278 18.352675 l -0.0226,1.46838 -0.02259,1.46819 -0.961066,0.0128 c -0.744297,0.01 -0.965998,-5.9e-4 -0.982957,-0.0442 z m 1.685713,-6.50626 c 0.04406,-0.0541 0.07024,-0.23233 0.05983,-0.40764 -0.0052,-0.0731 -0.0649,-0.0791 -0.78407,-0.0682 l -0.779287,0.013 -0.01384,0.16757 c -0.0081,0.0917 0.0084,0.20893 0.03551,0.25977 0.0464,0.0865 0.09079,0.0919 0.742489,0.0919 0.499629,0 0.706063,-0.0159 0.739509,-0.0564 z m 4.709179,-0.0353 c 0.02713,-0.0518 0.04306,-0.16774 0.03552,-0.25976 l -0.01388,-0.16762 h -0.767995 -0.767994 l -0.01387,0.16755 c -0.0081,0.0918 0.0084,0.20895 0.03552,0.25976 0.04643,0.0866 0.09076,0.0919 0.746434,0.0919 0.655628,0 0.699982,-0.01 0.746425,-0.0919 z m 1.007098,6.55255 c -0.05428,-0.0231 -0.120346,-0.0807 -0.146814,-0.13011 -0.07943,-0.14851 -0.05781,-0.73193 0.03727,-1.00368 0.135916,-0.38854 2.166016,-5.54281 2.236567,-5.67831 0.174463,-0.33539 0.435659,-0.41783 1.309555,-0.41352 1.092247,0.01 1.126537,0.0278 1.521895,1.01695 1.790003,4.47655 2.092813,5.28039 2.111053,5.60411 0.0172,0.30568 0.0115,0.32904 -0.118317,0.4743 l -0.136448,0.1527 -3.358043,0.01 c -1.881662,0.009 -3.40144,-0.01 -3.456746,-0.0305 z m 4.819606,-1.36965 c 0,-0.1232 -1.25145,-3.91259 -1.319211,-3.99464 -0.02925,-0.0347 -0.07178,-0.041 -0.115866,-0.0173 -0.04016,0.0235 -0.275519,0.641 -0.554254,1.45621 -0.266517,0.77959 -0.571577,1.66358 -0.67791,1.96463 -0.106335,0.30081 -0.180562,0.58039 -0.164927,0.62117 0.02548,0.0668 0.173035,0.073 1.430287,0.073 h 1.401881 z m -0.265859,-5.14715 c 0.02086,-0.22612 -0.09067,-0.41419 -0.285982,-0.48226 -0.189422,-0.0666 -1.460977,-0.0581 -1.661733,0.0108 -0.175331,0.0599 -0.352178,0.32443 -0.302801,0.45307 0.02592,0.0677 0.145082,0.0745 1.137082,0.0745 0.853696,0 1.109431,-0.0133 1.113434,-0.0567 z m 3.268264,6.50534 c -0.01196,-0.0305 -0.01635,-1.65229 -0.01,-3.6028 l 0.01173,-3.54629 h 0.971288 0.971289 l 0.01161,3.6027 0.01159,3.60291 h -0.972986 c -0.736765,0 -0.978213,-0.0139 -0.994532,-0.0566 z m 1.742106,-6.54107 c 0.0271,-0.0517 0.04301,-0.16773 0.03552,-0.25973 l -0.01385,-0.16759 -0.779288,-0.0129 -0.779291,-0.013 v 0.18466 c 0,0.3582 0.004,0.35959 0.790586,0.35959 0.655626,0 0.699985,-0.01 0.746423,-0.092 z m 1.375392,6.54194 c -0.01203,-0.0308 -0.01669,-1.65316 -0.01027,-3.60368 l 0.01171,-3.54628 h 0.971283 0.971292 l 0.02258,1.26499 c 0.02055,1.14986 0.0296,1.26491 0.09914,1.26491 0.04454,0 0.475552,-0.47297 1.029477,-1.12935 0.524104,-0.62125 1.023006,-1.19562 1.10865,-1.2764 l 0.155742,-0.14672 h 1.152653 c 0.633964,0 1.152656,0.0176 1.152656,0.0383 0,0.0217 -0.519656,0.60472 -1.154787,1.29707 -0.720094,0.78478 -1.147572,1.28472 -1.135603,1.32812 0.04594,0.16664 2.46962,4.22723 2.530557,4.23963 0.03718,0.01 0.08044,-0.01 0.09611,-0.0322 0.01569,-0.0249 0.47655,-1.35301 1.024174,-2.95026 1.27082,-3.70672 1.212937,-3.54492 1.315659,-3.67553 0.191808,-0.24383 0.301528,-0.26772 1.231617,-0.26772 0.950858,0 1.050057,0.0233 1.222735,0.27913 0.05331,0.0787 0.230386,0.53654 0.39378,1.01656 0.163403,0.48002 0.672732,1.97136 1.13186,3.31399 0.459112,1.34269 0.841721,2.48114 0.850238,2.52993 0.01502,0.0854 -0.019,0.0886 -0.987632,0.10083 -0.923504,0.0116 -1.006547,0.01 -1.046246,-0.0691 -0.0236,-0.0435 -0.124512,-0.35256 -0.223994,-0.68484 -0.09948,-0.33215 -0.208062,-0.62129 -0.241281,-0.64236 -0.101832,-0.0648 -2.176823,-0.0501 -2.261656,0.0172 -0.03997,0.0308 -0.15784,0.33094 -0.261948,0.66635 -0.104102,0.33539 -0.209931,0.63532 -0.23515,0.66636 -0.03553,0.0429 -0.510174,0.0565 -2.094493,0.0565 H 39.47532 l -0.100266,-0.13553 c -0.05523,-0.0744 -0.447824,-0.75046 -0.872615,-1.50189 -0.43149,-0.76321 -0.803709,-1.37222 -0.843363,-1.37983 -0.04236,-0.01 -0.251048,0.18069 -0.517898,0.46881 l -0.446896,0.48249 -0.02258,1.0217 -0.0226,1.02166 -0.961071,0.0129 c -0.744294,0.01 -0.966002,-4.2e-4 -0.982955,-0.0442 z m 11.21425,-2.86568 c 0.02651,-0.0699 -0.434186,-2.07579 -0.529942,-2.30778 -0.05386,-0.13054 -0.16902,-0.13054 -0.224709,0 -0.02372,0.0566 -0.145089,0.49803 -0.269418,0.98248 -0.124309,0.48459 -0.250031,0.96435 -0.279365,1.06604 -0.0943,0.32715 -0.08032,0.33447 0.639266,0.33447 0.551038,0 0.639133,-0.0102 0.664167,-0.0749 z m -9.472485,-3.6764 c 0.02708,-0.0518 0.04301,-0.16774 0.03553,-0.2598 l -0.01384,-0.16753 h -0.768044 -0.768002 l -0.01345,0.13803 c -0.008,0.0752 0.008,0.19294 0.03272,0.25981 l 0.04625,0.12168 h 0.699754 c 0.658365,0 0.702684,-0.01 0.749142,-0.0919 z m 4.055776,0.0278 c 0.173413,-0.0903 0.431463,-0.37074 0.395457,-0.42907 -0.03466,-0.0566 -1.685678,-0.0698 -1.769847,-0.0146 -0.0776,0.0518 -0.288078,0.37674 -0.288078,0.4461 0,0.0904 1.488568,0.0883 1.662468,-0.005 z m 5.944424,-0.01 c 0.01489,-0.0385 0,-0.13517 -0.0332,-0.21463 -0.114433,-0.2738 -0.13817,-0.27973 -1.094076,-0.27973 -0.854046,0 -0.872496,0.004 -0.984598,0.10724 -0.117353,0.11019 -0.192982,0.329 -0.142188,0.41113 0.01823,0.0288 0.426316,0.0451 1.127919,0.0451 0.95305,0 1.102902,-0.01 1.126288,-0.0709 z m -39.1031223,3.6084 c 0.03262,-0.0135 0.07155,-0.0119 0.086594,0.007 0.015001,0.0148 -0.01167,0.0254 -0.059297,0.024 -0.052585,-0.004 -0.063326,-0.0129 -0.02732,-0.0264 z m 0.8998396,0.002 c 0.030582,-0.0129 0.091572,-0.0131 0.1355293,-0.003 0.043959,0.0119 0.018937,0.022 -0.055609,0.0234 -0.074547,0.002 -0.1105042,-0.01 -0.079918,-0.0212 z m -0.5638408,-0.0488 c 0.093175,-0.01 0.2456464,-0.01 0.3388211,0 0.093173,0.01 0.016932,0.0182 -0.16941,0.0182 -0.1863529,0 -0.2625872,-0.01 -0.1694111,-0.0182 z"
       id="path9518" />
  </g>
</svg>
